<ttFont>
<head>
    <!-- Most of this table will be recalculated by the compiler -->
    <tableVersion value="1.0"/>
    <fontRevision value="0.0"/>
    <checkSumAdjustment value="0xe2519b00"/>
    <magicNumber value="0x5f0f3cf5"/>
    <flags value="00000000 00000011"/>
    <unitsPerEm value="2048"/>
    <created value="Thu May  4 15:33:08 2017"/>
    <modified value="Thu May  4 22:33:12 2017"/>
    <xMin value="-35"/>
    <yMin value="-594"/>
    <xMax value="1688"/>
    <yMax value="2313"/>
<macStyle value="00000000 00000010"/>
    <lowestRecPPEM value="3"/>
    <fontDirectionHint value="2"/>
    <indexToLocFormat value="0"/>
    <glyphDataFormat value="0"/>
  </head>
          <CharString index="0">
            687 -20 rmoveto
            266 182 154 272 48 hvcurveto
            -28 callgsubr
            82 callgsubr
            -7 -40 -3 -41 -39 vvcurveto
            -253 180 -179 268 vhcurveto
            73 960 90 callgsubr
            -28 -2 -32 -4 -28 hvcurveto
            -26 -144 32 callsubr
            30 3 30 6 37 76 callgsubr
            107 105 153 hhcurveto
            return
          </CharString>
          <CharString index="1">
            794 947 rmoveto
            157 97 -106 -154 -16 hvcurveto
            -8 -5 -36 -1 -7 vhcurveto
            -539 hlineto
            5 10 53 1 4 vhcurveto
            156 31 111 93 154 hhcurveto
            359 -659 rmoveto
            26 callgsubr
            -21 -134 rlineto
            -12 -71 -4 -42 -43 vvcurveto
            -261 166 -160 269 234 191 129 180 30 vhcurveto
            return
          </CharString>
          <CharString index="2">
            -104 callgsubr
            -32 -185 rlineto
            return
          </CharString>
          <CharString index="3">
            rmoveto
            -7 -46 -4 -38 -37 vvcurveto
            -281 196 -183 292 283 199 178 304 55 vhcurveto
            176 991 -16 callgsubr
            -171 -963 rlineto
            -198 -36 -125 -121 -167 hhcurveto
            -169 -117 111 180 25 5 41 6 36 hvcurveto
            157 889 -16 callgsubr
            return
          </CharString>
          <CharString index="4">
            rmoveto
            136 callgsubr
            660 -21 callgsubr
            -868 -96 callgsubr
            868 hlineto
            return
          </CharString>
          <CharString index="5">
            112 -36 45 -43 -68 vvcurveto
            -97 -92 -63 -141 -141 -90 60 102 -12 vhcurveto
            4 -197 vlineto
            -1 -5 0 -4 -7 vvcurveto
            -189 6 172 -122 257 131 callsubr
            142 207 136 -79 84 -186 61 hvcurveto
            -145 47 rlineto
            -111 36 -47 42 67 vvcurveto
            90 91 64 131 127 77 -57 -101 10 vhcurveto
            -4 193 vlineto
            1 5 0 7 9 vvcurveto
            183 -7 -156 117 -237 hhcurveto
            -256 -174 -137 -202 return
          </CharString>
          <CharString index="6">
            268 -390 rmoveto
            216 104 79 278 147 hvcurveto
            598 1123 rlineto
            -221 hlineto
            -441 -892 rlineto
            -14 hlineto
            -131 892 rlineto
            -212 hlineto
            205 -1097 -27 -55 rlineto
            -123 -65 -53 -36 -100 hhcurveto
            -29 -29 2 1 -8 hvcurveto
            -29 -169 rlineto
            -1 11 45 -2 33 hhcurveto
            return
          </CharString>
          <CharString index="7">
            rmoveto
            -333 -346 51 callsubr
            202 222 rlineto
            16 hlineto
            125 -222 110 callgsubr
            -211 346 rlineto
            return
          </CharString>
          <CharString index="8">
            31 181 -97 callgsubr
            return
          </CharString>
          <CharString index="9">
            200 80 callsubr
            179 32 121 110 150 hhcurveto
            134 83 -87 -127 -30 -4 -36 -7 -40 81 callsubr
            201 hlineto
            109 623 rlineto
            12 67 4 37 40 vvcurveto
            205 -133 139 -209 -155 -123 -81 -125 -56 vhcurveto
            -12 hlineto
            32 185 rlineto
            -193 hlineto
            return
          </CharString>
          <CharString index="10">
            268 1061 rmoveto
            -6 -17 -5 -21 -4 -20 rrcurveto
            214 hlineto
            3 10 3 8 3 11 rrcurveto
            164 63 119 86 159 hhcurveto
            193 120 -127 -224 -32 -3 -37 -5 -40 hvcurveto
            -539 215 callgsubr
            541 hlineto
            -5 -29 -9 -43 -8 -27 rrcurveto
            -248 -66 -140 -136 -196 hhcurveto
            -188 -109 107 182 -1 hvcurveto
            12 1 7 8 vvcurveto
            -211 hlineto
            -1 -14 -1 -20 -6 vvcurveto
            -288 193 -180 315 299 207 173 321 92 vhcurveto
            17 47 30 162 10 57 rrcurveto
            14 80 6 66 62 vvcurveto
            335 -194 202 -321 -272 -208 -152 -262 -80 vhcurveto
            return
          </CharString>
          <CharString index="11">
            201 hlineto
            113 643 rlineto
            179 32 122 108 150 hhcurveto
            133 88 -87 -128 -28 -4 -37 -7 -38 81 callsubr
            200 hlineto
            -66 callgsubr
            return
          </CharString>
          <CharString index="12">
            -254 -84 callsubr
            return
          </CharString>
          <CharString index="13">
            67 59 59 -82 callsubr
            -59 68 hvcurveto
            return
          </CharString>
          <CharString index="14">
            1253 413 rmoveto
            1 6 1 8 9 vvcurveto
            -211 hlineto
            -1 -3 0 -2 -4 vvcurveto
            -169 -35 -114 -95 -167 hhcurveto
            -189 -113 121 202 50 5 54 8 41 hvcurveto
            46 261 rlineto
            250 46 132 137 192 hhcurveto
            171 111 -104 -159 -22 -1 -15 -2 -22 hvcurveto
            208 hlineto
            4 28 2 24 22 vvcurveto
            261 -198 181 -285 -322 -209 -206 -379 -65 vhcurveto
            -42 -242 rlineto
            -9 -45 -5 -59 -53 vvcurveto
            -319 194 -201 306 290 217 177 267 34 vhcurveto
            return
          </CharString>
          <CharString index="15">
            rmoveto
            261 47 121 134 181 hhcurveto
            180 117 -132 -203 -58 -3 -43 -9 -51 109 callgsubr
            -120 -137 -183 hhcurveto
            -182 -116 133 207 51 5 46 11 68 hvcurveto
            870 43 rmoveto
            16 84 9 83 77 vvcurveto
            112 -28 98 -54 86 vhcurveto
            1 7 rlineto
            19 hlineto
            126 -7 93 67 39 128 10 23 18 109 19 101 rrcurveto
            -168 hlineto
            -25 -142 rlineto
            -91 -17 -52 -46 -83 -140 -58 76 -193 hhcurveto
            -300 -207 -202 -353 -63 hvcurveto
            129 callsubr
            -60 -95 vvcurveto
            -303 199 -209 290 309 199 -4 callsubr
            66 vhcurveto
            return
          </CharString>
          <CharString index="16">
            rmoveto
            74 -42 callsubr
            -74 -73 -62 -63 -75 -75 62 -63 73 hvcurveto
            return
          </CharString>
          <CharString index="17">
            rmoveto
            -16 callsubr
            -106 -574 rlineto
            -6 -35 -3 -31 -27 vvcurveto
            -167 115 -89 215 45 180 4 4 21 vhcurveto
            28 164 rlineto
            -3 -23 -132 -2 -55 hhcurveto
            -128 -61 44 92 13 2 14 3 19 hvcurveto
            105 574 rlineto
            429 hlineto
            10 callsubr
            return
          </CharString>
          <CharString index="18">
            -32 -179 rlineto
            189 hlineto
            167 944 rlineto
            29 hlineto
            122 93 68 123 21 hvcurveto
            33 190 rlineto
            -169 hlineto
            -26 -149 rlineto
            -57 -10 -35 -29 -62 hhcurveto
            -170 hlineto
            -116 -655 rlineto
            -172 -31 -117 -108 -146 hhcurveto
            -130 -81 84 124 28 4 35 7 39 hvcurveto
            109 625 182 callgsubr
            -110 -623 rlineto
            -11 -67 -4 -38 -39 vvcurveto
            -205 133 -139 208 155 114 81 119 52 vhcurveto
            return
          </CharString>
          <CharString index="19">
            rmoveto
            -21 -115 rlineto
            -140 -25 -121 -101 -141 hhcurveto
            -120 -76 65 101 hvcurveto
            1 118 97 68 172 2 rrcurveto
            180 -351 rmoveto
            82 callgsubr
            191 hlineto
            113 638 rlineto
            16 86 3 28 43 vvcurveto
            187 -155 123 -234 -227 -185 -124 -178 -34 vhcurveto
            199 hlineto
            82 28 92 55 109 hhcurveto
            126 81 -67 -102 -19 -2 -16 -5 -29 hvcurveto
            -10 -58 -263 -3 -306 -4 -167 -127 2 -228 rlinecurve
            -180 2 134 -125 193 hhcurveto
            141 118 65 106 54 hvcurveto
            endchar
          </CharString>
          <CharString index="20">
            rmoveto
            10 1 10 7 vvcurveto
            218 -174 146 -258 -269 -191 -162 -270 -48 vhcurveto
            -9 -47 -13 -83 -4 -28 rrcurveto
            -8 -48 -3 -43 -38 vvcurveto
            -255 170 -159 274 238 184 138 213 45 vhcurveto
            -25 callsubr
            return
          </CharString>
          <CharString index="21">
            rmoveto
            -13 -75 17 callgsubr
            50 3 41 7 50 hvcurveto
            32 177 rmoveto
            12 69 17 callsubr
            -37 -4 -50 -5 -42 hvcurveto
            -891 -129 rmoveto
            -11 -54 -4 -61 -93 vvcurveto
            -303 201 -209 291 310 201 -4 callsubr
            64 vhcurveto
            -9 callsubr
            endchar
          </CharString>
          <CharString index="22">
            -91 callsubr
            endchar
          </CharString>
          <CharString index="23">
            -1443 rlineto
            return
          </CharString>
          <CharString index="24">
            rmoveto
            -6 -34 32 callsubr
            18 1 18 2 20 hvcurveto
            25 153 rmoveto
            5 29 32 callgsubr
            -14 -1 -16 -1 -15 hvcurveto
            -773 -96 rmoveto
            -17 callsubr
            -28 callgsubr
            endchar
          </CharString>
          <CharString index="25">
            70 70 -59 -62 callgsubr
            return
          </CharString>
          <CharString index="26">
            31 hlineto
            146 89 85 166 30 hvcurveto
            25 151 rlineto
            -168 hlineto
            -21 -126 rlineto
            -86 -15 -48 -45 -76 hhcurveto
            -176 hlineto
            -172 -975 rlineto
            -190 -35 -123 -117 -161 hhcurveto
            -167 -110 111 171 23 4 40 7 35 hvcurveto
            159 902 -16 callgsubr
            -158 -898 rlineto
            -8 -47 -3 -36 -36 vvcurveto
            -275 189 -181 289 return
          </CharString>
          <CharString index="27">
            1419 1090 -77 callgsubr
            return
          </CharString>
          <CharString index="28">
            1123 hmoveto
            -56 callgsubr
            -206 hlineto
            -108 -615 rlineto
            -569 hlineto
            109 615 rlineto
            185 callsubr
            643 rlineto
            568 -20 callgsubr
            return
          </CharString>
          <CharString index="29">
            -198 hlineto
            -115 -37 -96 -64 -126 hhcurveto
            -163 -91 97 172 36 6 51 8 42 hvcurveto
            12 71 rlineto
            215 39 101 105 172 hhcurveto
            141 99 -88 -122 hvcurveto
            -9 return
          </CharString>
          <CharString index="30">
            rmoveto
            333 346 rlineto
            -221 hlineto
            -202 -222 rlineto
            -16 hlineto
            -125 222 rlineto
            -206 58 callgsubr
            return
          </CharString>
          <CharString index="31">
            850 801 rmoveto
            640 642 rlineto
            -246 hlineto
            -703 -694 rlineto
            -13 hlineto
            126 694 rlineto
            -201 -96 callgsubr
            201 hlineto
            86 484 196 184 331 -668 rlineto
            233 hlineto
            return
          </CharString>
          <CharString index="32">
            139 24 92 100 123 vvcurveto
            175 -166 119 -247 -239 -183 -132 -195 -35 vhcurveto
            193 hlineto
            100 34 95 61 124 hhcurveto
            134 88 -61 -91 -97 -89 -61 -140 hvcurveto
            -166 hlineto
            -25 -150 rlineto
            167 hlineto
            131 83 -58 -91 -108 -109 -82 -160 -160 -110 80 117 8 hvcurveto
            -189 hlineto
            -1 -5 0 -5 -4 vvcurveto
            return
          </CharString>
          <CharString index="33">
            rmoveto
            4 28 2 24 22 vvcurveto
            261 -198 181 -285 -322 -209 -206 -379 -65 vhcurveto
            -42 -242 rlineto
            -9 -45 -5 -59 -53 vvcurveto
            -276 145 -187 236 -46 vhcurveto
            -61 -115 -22 callgsubr
            97 280 8 209 175 33 261 rlinecurve
            1 6 1 8 9 vvcurveto
            -211 hlineto
            -1 -3 0 -2 -4 vvcurveto
            -169 -35 -114 -95 -167 hhcurveto
            -189 -113 121 202 50 5 54 8 41 hvcurveto
            46 261 rlineto
            250 46 132 137 192 hhcurveto
            171 111 -104 -159 -22 -1 -15 -2 -22 hvcurveto
            endchar
          </CharString>
          <CharString index="34">
            -268 -47 -123 -139 -185 hhcurveto
            return
          </CharString>
          <CharString index="35">
            437 1443 114 callsubr
            209 hlineto
            89 502 rlineto
            273 hlineto
            356 224 210 329 246 -171 156 -269 hvcurveto
            -278 -178 rmoveto
            239 hlineto
            172 99 -87 -152 -215 -140 -132 -230 hvcurveto
            -244 hlineto
            return
          </CharString>
          <CharString index="36">
            rmoveto
            304 645 rlineto
            7 hlineto
            72 -645 rlineto
            63 -567 rmoveto
            211 hlineto
            -198 1443 rlineto
            -232 63 callsubr
            216 hlineto
            188 398 rlineto
            481 hlineto
            endchar
          </CharString>
          <CharString index="37">
            rmoveto
            -88 callgsubr
            30 3 30 6 37 hvcurveto
            24 141 32 callgsubr
            -28 -2 -32 -4 -28 hvcurveto
            192 -26 rmoveto
            7 44 4 40 30 vvcurveto
            258 -181 179 -277 -253 -188 -162 -263 -46 vhcurveto
            82 callgsubr
            -17 callsubr
            endchar
          </CharString>
          <CharString index="38">
            rmoveto
            75 416 rlineto
            144 hlineto
            123 74 -65 -111 -146 -102 -94 -155 hvcurveto
            -56 580 rmoveto
            61 345 rlineto
            -182 178 callsubr
            352 hlineto
            273 179 167 254 202 -136 122 -225 hvcurveto
            601 -745 91 callgsubr
            -187 -42 callgsubr
            endchar
          </CharString>
          <CharString index="39">
            266 182 154 272 48 return
          </CharString>
          <CharString index="40">
            -64 callsubr
            420 -72 callgsubr
            return
          </CharString>
          <CharString index="41">
            100 callgsubr
            82 111 14 121 callsubr
            -173 -34 134 130 callsubr
            return
          </CharString>
          <CharString index="42">
            136 hmoveto
            1004 92 callgsubr
            -744 hlineto
            2 13 923 1089 26 156 rlineto
            -965 hlineto
            -31 -185 rlineto
            703 hlineto
            -1 -13 -923 -1092 rlineto
            return
          </CharString>
          <CharString index="43">
            rmoveto
            -94 callsubr
            return
          </CharString>
          <CharString index="44">
            674 142 rmoveto
            -157 -97 107 154 17 hvcurveto
            8 4 36 1 6 vhcurveto
            540 hlineto
            -1 -4 -10 -53 -1 -4 rrcurveto
            -156 -31 -111 -94 -154 hhcurveto
            -359 660 rmoveto
            198 hlineto
            86 25 101 58 121 hhcurveto
            165 100 -110 -167 -14 hvcurveto
            -6 -6 -56 -3 -12 vhcurveto
            -733 hlineto
            -13 -93 rlineto
            -3 -15 -8 -66 -18 vvcurveto
            -244 -21 177 -180 261 hhcurveto
            270 194 162 259 42 hvcurveto
            21 134 rlineto
            12 70 4 43 43 vvcurveto
            260 -166 161 -269 -234 -191 -129 -180 -30 vhcurveto
            return
          </CharString>
          <CharString index="45">
            -188 -33 -104 -104 -156 hhcurveto
            return
          </CharString>
          <CharString index="46">
            68 -53 callsubr
            return
          </CharString>
          <CharString index="47">
            rmoveto
            -201 hlineto
            -80 -446 rlineto
            -57 -57 -109 -35 -109 hhcurveto
            -128 -79 66 117 16 2 19 4 23 hvcurveto
            52 297 -15 callsubr
            -53 -305 rlineto
            -6 -33 -2 -31 -30 vvcurveto
            -200 130 -118 208 120 107 28 59 79 vhcurveto
            11 hlineto
            return
          </CharString>
          <CharString index="48">
            666 -29 rmoveto
            366 185 253 460 79 hvcurveto
            17 108 rlineto
            364 62 -154 317 -385 hhcurveto
            -313 -183 -211 -273 -81 hvcurveto
            212 hlineto
            172 57 120 121 173 hhcurveto
            227 111 -197 -273 -52 hvcurveto
            -5 -28 rlineto
            -878 hlineto
            0 -22 -112 -5 -30 vhcurveto
            -379 -66 164 -292 371 hhcurveto
            13 190 rmoveto
            -233 -94 177 247 44 hvcurveto
            4 23 rlineto
            670 hlineto
            -3 -16 rlineto
            -275 -44 -125 -156 -219 hhcurveto
            return
          </CharString>
          <CharString index="49">
            -29 callgsubr
            50 hhcurveto
            158 102 81 124 91 -65 56 -114 6 hvcurveto
            return
          </CharString>
          <CharString index="50">
            rmoveto
            -38 callgsubr
            421 hmoveto
            -94 callsubr
            endchar
          </CharString>
          <CharString index="51">
            864 hlineto
            29 166 rlineto
            -605 hlineto
            3 15 735 767 24 142 rlineto
            -854 131 callgsubr
            602 hlineto
            -2 -15 -745 -777 rlineto
            return
          </CharString>
          <CharString index="52">
            1443 rlineto
            return
          </CharString>
          <CharString index="53">
            rmoveto
            -210 -35 -85 -106 -121 hhcurveto
            -110 -67 91 150 32 6 56 6 45 hvcurveto
            16 94 rlineto
            209 35 84 109 120 hhcurveto
            111 67 -91 -151 -32 -5 -56 -6 -46 hvcurveto
            -576 79 169 callgsubr
            return
          </CharString>
          <CharString index="54">
            58 59 70 70 -58 return
          </CharString>
          <CharString index="55">
            rmoveto
            74 116 callgsubr
            -74 -73 125 callgsubr
            73 hvcurveto
            return
          </CharString>
          <CharString index="56">
            460 538 rlineto
            -230 hlineto
            -323 -401 rlineto
            -15 hlineto
            -188 401 rlineto
            -220 hlineto
            272 -546 -462 -544 rlineto
            226 hlineto
            330 405 rlineto
            return
          </CharString>
          <CharString index="57">
            hlineto
            -56 callgsubr
            return
          </CharString>
          <CharString index="58">
            -45 callsubr
            106 5 28 46 57 hhcurveto
            return
          </CharString>
          <CharString index="59">
            -59 67 hvcurveto
            421 -31 callgsubr
          </CharString>
          <CharString index="60">
            rmoveto
            43 41 5 9 24 hvcurveto
            23 131 rlineto
            -3 -14 -27 -2 -31 hhcurveto
            -68 -49 41 59 74 44 56 158 127 hvcurveto
            135 107 78 145 37 211 42 229 rcurveline
            11 66 4 61 66 53 callsubr
            -48 -4 -60 -100 vvcurveto
            -300 198 -212 277 4 vhcurveto
            48 33 8 19 32 hvcurveto
            3 -13 rlineto
            -112 -73 -42 -71 -84 vvcurveto
            -110 100 -81 136 vhcurveto
            -167 591 rmoveto
            -183 -113 131 210 58 5 46 10 60 hvcurveto
            40 223 rlineto
            261 46 121 134 184 hhcurveto
            181 118 -133 -202 -44 -5 -62 -8 -46 109 callgsubr
            -121 -137 -186 hhcurveto
            endchar
          </CharString>
          <CharString index="61">
            rmoveto
            40 33 5 10 37 hvcurveto
            23 129 rlineto
            -3 -11 -27 -2 -26 hhcurveto
            -72 -53 45 62 75 45 55 149 113 hvcurveto
            107 77 69 116 28 155 27 153 rcurveline
            7 43 4 40 31 vvcurveto
            261 -184 176 -274 -255 -185 -162 -263 -46 vhcurveto
            -28 -153 rlineto
            -7 -38 -3 -38 -44 vvcurveto
            -256 183 -176 262 3 vhcurveto
            29 31 8 14 28 hvcurveto
            2 -13 rlineto
            -115 -64 -53 -70 -92 vvcurveto
            -112 102 -85 133 vhcurveto
            -81 1371 90 callgsubr
            -33 -2 -31 -4 -24 hvcurveto
            -24 -144 rlineto
            -184 -31 -109 -108 -155 hhcurveto
            -158 -106 109 161 24 3 28 6 45 76 callgsubr
            108 105 152 hhcurveto
            endchar
          </CharString>
          <CharString index="62">
            156 -160 hhcurveto
            -142 25 callsubr
            return
          </CharString>
          <CharString index="63">
            rmoveto
            -73 callsubr
            -104 -81 42 75 -51 hvcurveto
            636 763 rlineto
            6 -29 3 -31 -32 vvcurveto
            -44 -5 -62 -8 -46 vhcurveto
            -638 92 210 callsubr
            105 84 -45 -77 52 hvcurveto
            -638 -758 rlineto
            -6 30 -3 33 35 vvcurveto
            57 4 46 10 61 vhcurveto
            1019 778 rmoveto
            -150 hlineto
            -100 -120 rlineto
            95 -88 -127 55 -153 hhcurveto
            -298 -209 -203 -352 -62 hvcurveto
            223 callsubr
            -100 22 -91 40 -75 vhcurveto
            -181 -216 rlineto
            157 hlineto
            96 115 rlineto
            -92 87 124 -53 147 hhcurveto
            310 201 -4 callsubr
            64 hvcurveto
            222 callsubr
            104 -22 93 -41 77 vhcurveto
            endchar
          </CharString>
          <CharString index="64">
            rmoveto
            27 151 rlineto
            -678 77 callsubr
            return
          </CharString>
          <CharString index="65">
            62 63 75 75 -62 63 return
          </CharString>
          <CharString index="66">
            -753 hlineto
            -88 -433 rlineto
            -384 -79 -49 -100 -110 hhcurveto
            -21 -26 4 4 -13 hvcurveto
            -30 -180 rlineto
            -5 17 49 -6 30 hhcurveto
            211 95 124 533 113 hvcurveto
            return
          </CharString>
          <CharString index="67">
            -105 callgsubr
            endchar
          </CharString>
          <CharString index="68">
            15 callsubr
            -59 -60 23 callgsubr
            return
          </CharString>
          <CharString index="69">
            8 callsubr
            67 59 59 70 70 -59 45 callgsubr
          </CharString>
          <CharString index="70">
            rmoveto
            86 40 -157 39 callgsubr
            12 hvcurveto
            -153 hlineto
            -106 -6 -27 -44 -57 -86 -40 -49 callsubr
            endchar
          </CharString>
          <CharString index="71">
            rmoveto
            -679 hlineto
            -28 -162 rlineto
            483 hlineto
            -159 -898 rlineto
            -135 -24 -73 -56 -160 hhcurveto
            -38 -154 4 8 -88 hvcurveto
            -30 -175 rlineto
            -10 98 142 -3 60 hhcurveto
            279 138 201 callgsubr
            return
          </CharString>
          <CharString index="72">
            rmoveto
            85 callgsubr
            -205 73 callgsubr
            endchar
          </CharString>
          <CharString index="73">
            719 -29 rmoveto
            274 208 160 248 48 hvcurveto
            3 14 2 17 2 17 rrcurveto
            -210 hlineto
            -2 -12 -3 -11 -3 -12 rrcurveto
            -145 -41 -116 -84 -152 hhcurveto
            -190 -121 132 209 41 6 55 9 48 hvcurveto
            529 hlineto
            30 176 rlineto
            -530 hlineto
            18 86 rlineto
            237 49 130 133 182 hhcurveto
            164 114 -103 -155 10 hvcurveto
            1 -19 0 -15 -16 vvcurveto
            210 hlineto
            1 14 1 28 6 vvcurveto
            268 -202 186 -293 -302 -212 -197 -341 -64 vhcurveto
            -20 -99 -28 -170 -6 -46 rrcurveto
            -5 -44 -3 -37 -40 vvcurveto
            -318 204 -211 308 vhcurveto
            return
          </CharString>
          <CharString index="74">
            hhcurveto
            -119 -60 82 111 15 hvcurveto
            -156 hlineto
            -173 -33 133 130 callsubr
            return
          </CharString>
          <CharString index="75">
            -104 callsubr
            endchar
          </CharString>
          <CharString index="76">
            67 59 59 70 70 -59 -15 callgsubr
            return
          </CharString>
          <CharString index="77">
            224 callsubr
            89 66 62 86 87 -66 25 callgsubr
            return
          </CharString>
          <CharString index="78">
            57 callsubr
            49 hhcurveto
            159 102 81 124 91 -65 56 -114 6 hvcurveto
            return
          </CharString>
          <CharString index="79">
            rmoveto
            -5 callsubr
            -677 hlineto
            -27 -151 rlineto
            return
          </CharString>
          <CharString index="80">
            932 650 rmoveto
            30 176 rlineto
            -184 hlineto
            -154 -94 76 119 149 120 127 208 159 97 -81 -127 -10 0 -10 -1 -10 hvcurveto
            196 hlineto
            3 20 1 21 19 vvcurveto
            218 -163 136 -282 -339 -199 -212 -237 -137 82 -98 136 -30 vhcurveto
            -2 -15 rlineto
            -249 -21 -151 -166 -201 vvcurveto
            -244 182 -142 301 287 246 157 265 57 vhcurveto
            -200 hlineto
            -143 -35 -152 -97 -187 hhcurveto
            -174 -108 79 141 158 127 120 253 hvcurveto
            return
          </CharString>
          <CharString index="81">
            -70 101 callgsubr
            return
          </CharString>
          <CharString index="82">
            -78 callsubr
            vlineto
            return
          </CharString>
          <CharString index="83">
            15 callgsubr
            -218 hlineto
            endchar
          </CharString>
          <CharString index="84">
            rmoveto
            73 116 callgsubr
            -73 -74 125 callgsubr
            74 hvcurveto
            endchar
          </CharString>
          <CharString index="85">
            rlinecurve
            -78 callsubr
            return
          </CharString>
          <CharString index="86">
            hlineto
            337 307 rlineto
            return
          </CharString>
          <CharString index="87">
            9 callsubr
            -40 156 -161 hhcurveto
            return
          </CharString>
          <CharString index="88">
            40 -157 161 hhcurveto
            140 93 -20 callsubr
            return
          </CharString>
          <CharString index="89">
            662 -20 rmoveto
            287 189 125 230 58 hvcurveto
            -203 hlineto
            -124 -44 -104 -63 -166 hhcurveto
            -163 -90 61 107 1 hvcurveto
            97 83 59 135 vhcurveto
            194 hlineto
            29 161 rlineto
            -116 hlineto
            -143 -83 54 92 100 94 62 153 160 86 -55 -113 19 hvcurveto
            195 hlineto
            218 -14 -162 119 -283 hhcurveto
            -264 -177 -126 -189 -99 44 -70 94 -51 hvcurveto
            -2 -11 rlineto
            -152 -25 -95 -104 -144 vvcurveto
            -193 167 -118 273 vhcurveto
            return
          </CharString>
          <CharString index="90">
            -7 -40 -3 -41 -39 vvcurveto
            -253 180 -179 268 -68 callsubr
            vhcurveto
            return
          </CharString>
          <CharString index="91">
            -52 -304 rlineto
            -289 hlineto
            -29 -165 rlineto
            289 hlineto
            return
          </CharString>
          <CharString index="92">
            rlineto
            -201 hlineto
            return
          </CharString>
          <CharString index="93">
            533 hlineto
            26 148 rlineto
            -350 hlineto
            2 15 484 785 24 142 rlineto
            -516 220 callsubr
            rlineto
            343 hlineto
            -3 -15 -495 -795 rlineto
            -439 1311 135 callgsubr
            81 5 65 58 vvcurveto
            263 -99 112 -231 vhcurveto
            -42 -152 rmoveto
            12 hlineto
            139 52 -60 -159 -49 -6 -67 -13 -94 hvcurveto
            -478 -58 -130 -232 -186 hhcurveto
            -12 hlineto
            endchar
          </CharString>
          <CharString index="94">
            -26 -151 rlineto
            return
          </CharString>
          <CharString index="95">
            161 179 callgsubr
            -159 hlineto
            -116 56 callgsubr
            116 124 callsubr
            -153 return
          </CharString>
          <CharString index="96">
            92 callsubr
            220 hlineto
            190 153 callgsubr
            139 -146 194 callgsubr
            return
          </CharString>
          <CharString index="97">
            113 184 11 hvcurveto
            -153 hlineto
            return
          </CharString>
          <CharString index="98">
            222 callsubr
            313 -199 209 -300 -298 -209 -203 -352 -62 vhcurveto
            return
          </CharString>
          <CharString index="99">
            951 746 rmoveto
            183 19 144 158 186 vvcurveto
            219 -183 145 -275 -257 -185 -136 -220 -42 vhcurveto
            195 hlineto
            112 30 105 68 143 hhcurveto
            165 101 -82 -131 -150 -127 -102 -185 hvcurveto
            -170 168 callgsubr
            162 hlineto
            169 109 -87 -135 -166 -127 -110 -196 -165 -127 100 130 7 0 11 1 2 hvcurveto
            -198 hlineto
            -1 -6 -1 -39 -9 vvcurveto
            return
          </CharString>
          <CharString index="100">
            rmoveto
            213 callgsubr
            207 198 rlineto
            14 hlineto
            137 41 callsubr
            return
          </CharString>
          <CharString index="101">
            733 8 callgsubr
            -189 -1076 -101 callgsubr
            151 458 rmoveto
            -51 callgsubr
            -59 68 89 callsubr
            hvcurveto
            endchar
          </CharString>
          <CharString index="102">
            26 151 rlineto
            return
          </CharString>
          <CharString index="103">
            195 364 return
          </CharString>
          <CharString index="104">
            519 180 rmoveto
            92 508 rlineto
            199 hlineto
            172 96 -73 -129 -182 -117 -124 -243 hvcurveto
            -78 686 rmoveto
            37 208 rlineto
            483 hlineto
            30 172 rlineto
            -482 hlineto
            35 197 227 callgsubr
            -35 -197 rlineto
            -289 hlineto
            -30 -172 rlineto
            289 hlineto
            -189 -1074 rlineto
            462 hlineto
            346 205 211 296 223 -156 136 -265 hvcurveto
            endchar
          </CharString>
          <CharString index="105">
            518 165 rmoveto
            73 402 226 callgsubr
            143 70 -56 -101 -149 -96 -96 -189 hvcurveto
            -119 565 rmoveto
            38 219 rlineto
            457 hlineto
            193 callgsubr
            -456 hlineto
            75 425 -15 callsubr
            -75 -425 rlineto
            -254 hlineto
            -24 -141 rlineto
            253 hlineto
            -167 -949 rlineto
            441 hlineto
            324 171 180 242 196 -132 112 -247 hvcurveto
            endchar
          </CharString>
          <CharString index="106">
            145 callgsubr
            712 -21 callgsubr
            -259 hlineto
            190 1073 112 callsubr
            return
          </CharString>
          <CharString index="107">
            235 hmoveto
            776 hlineto
            153 callsubr
            185 hlineto
            78 450 rlineto
            -166 177 callsubr
            -740 hlineto
            -9 -50 -106 -437 -20 -96 -45 -188 -64 -115 -80 -39 rrcurveto
            -80 hlineto
            -78 -450 rlineto
            185 hlineto
            202 450 rmoveto
            3 14 56 53 45 94 34 135 rlinecurve
            8 29 88 364 14 72 rrcurveto
            367 hlineto
            -136 -761 rlineto
            endchar
          </CharString>
          <CharString index="108">
            rmoveto
            86 38 -147 161 hhcurveto
            137 96 113 173 9 hvcurveto
            -153 hlineto
            -101 -8 -25 -41 -55 -86 -38 145 -161 hhcurveto
            -139 -93 -111 -177 -10 hvcurveto
            153 hlineto
            103 7 26 43 55 hhcurveto
            -11 -237 -100 callsubr
            endchar
          </CharString>
          <CharString index="109">
            hlineto
            -207 -197 rlineto
            -15 hlineto
            -136 34 callgsubr
            return
          </CharString>
          <CharString index="110">
            rlineto
            -194 -96 callgsubr
            return
          </CharString>
          <CharString index="111">
            69 callgsubr
            -421 hmoveto
            -94 callsubr
            return
          </CharString>
          <CharString index="112">
            148 58 callsubr
            return
          </CharString>
          <CharString index="113">
            rmoveto
            11 36 30 5 32 hhcurveto
            55 32 -25 -40 -42 -39 -40 -68 -22 hvcurveto
            67 -81 rlineto
            113 35 67 78 97 vvcurveto
            93 -75 62 -109 -40 -42 -7 -12 -40 vhcurveto
            endchar
          </CharString>
          <CharString index="114">
            175 callsubr
            209 -343 rlineto
            endchar
          </CharString>
          <CharString index="115">
            -18 callgsubr
            421 hmoveto
            return
          </CharString>
          <CharString index="116">
            -10 callsubr
            -106 181 callsubr
            return
          </CharString>
          <CharString index="117">
            29 165 rlineto
            -432 hlineto
            52 304 rlineto
            return
          </CharString>
          <CharString index="118">
            -100 callsubr
            4 226 rmoveto
            16 34 37 9 39 hhcurveto
            62 39 -29 -45 -46 -40 -41 -68 -21 hvcurveto
            68 72 callsubr
            100 197 callgsubr
            -51 -10 -17 -37 vhcurveto
            endchar
          </CharString>
          <CharString index="119">
            577 636 rmoveto
            1 5 10 53 1 4 rrcurveto
            156 30 107 93 148 hhcurveto
            150 95 -106 -154 -17 hvcurveto
            -8 -5 -36 -1 -7 vhcurveto
            -707 3 rmoveto
            -68 -35 34 59 60 26 56 22 38 hvcurveto
            -150 hlineto
            -24 -36 -35 -69 -76 vvcurveto
            -126 77 -83 160 vhcurveto
            6 hlineto
            -5 -38 -2 -29 -29 vvcurveto
            return
          </CharString>
          <CharString index="120">
            -45 -69 2 callgsubr
            -52 -10 -15 -38 vhcurveto
            return
          </CharString>
          <CharString index="121">
            rmoveto
            -180 343 rlineto
            -230 hlineto
            210 -343 rlineto
            return
          </CharString>
          <CharString index="122">
            -61 callsubr
            60 -68 -67 return
          </CharString>
          <CharString index="123">
            -126 -190 -34 hvcurveto
            159 hlineto
            110 20 61 callgsubr
            return
          </CharString>
          <CharString index="124">
            rlineto
            21 callsubr
            return
          </CharString>
          <CharString index="125">
            207 5 callsubr
            return
          </CharString>
          <CharString index="126">
            673 231 rmoveto
            -7 hlineto
            -143 1212 225 callgsubr
            208 -84 callsubr
            232 hlineto
            716 -55 callsubr
            -217 hlineto
            return
          </CharString>
          <CharString index="127">
            hlineto
            28 165 rlineto
            -248 hlineto
            134 757 224 callgsubr
            -36 -204 191 callsubr
            return
          </CharString>
          <CharString index="128">
            262 46 122 133 184 hhcurveto
            181 118 -133 -202 return
          </CharString>
          <CharString index="129">
            hvcurveto
            -20 -115 rlineto
            -16 47 return
          </CharString>
          <CharString index="130">
            -191 hlineto
            -86 -25 -96 -58 -116 hhcurveto
            -159 -97 110 167 15 hvcurveto
            6 6 56 3 12 vhcurveto
            706 hlineto
            13 93 rlineto
            2 14 7 67 18 vvcurveto
            244 21 -171 180 -250 hhcurveto
            -261 -186 -162 -259 -42 hvcurveto
            endchar
          </CharString>
          <CharString index="131">
            -65 9 11 -29 22 callsubr
            return
          </CharString>
          <CharString index="132">
            -9 callgsubr
            153 hlineto
            return
          </CharString>
          <CharString index="133">
            -191 hlineto
            -177 -62 -113 -116 -154 hhcurveto
            -192 -82 158 312 56 hvcurveto
            12 63 rlineto
            769 hlineto
            0 25 128 7 43 vhcurveto
            353 61 -119 254 -324 hhcurveto
            -300 -195 -210 -386 -83 hvcurveto
            endchar
          </CharString>
          <CharString index="134">
            hlineto
            153 callsubr
            183 hlineto
            79 453 rlineto
            return
          </CharString>
          <CharString index="135">
            202 callsubr
            -66 52 -54 65 hvcurveto
            return
          </CharString>
          <CharString index="136">
            hlineto
            -442 431 rmoveto
            99 9 -127 164 hhcurveto
            126 92 99 138 9 hvcurveto
            -136 hlineto
            -71 -8 -33 -40 -50 -99 -10 127 -164 hhcurveto
            -127 -91 -95 -144 -9 hvcurveto
            137 hlineto
            74 7 32 39 52 hhcurveto
            endchar
          </CharString>
          <CharString index="137">
            -116 159 callgsubr
            -125 -76 87 callsubr
            return
          </CharString>
          <CharString index="138">
            -115 56 callgsubr
            115 124 callsubr
            -152 212 hhcurveto
            return
          </CharString>
          <CharString index="139">
            rlineto
            -88 callgsubr
            return
          </CharString>
          <CharString index="140">
            139 callsubr
            208 198 rlineto
            14 hlineto
            137 148 callgsubr
          </CharString>
          <CharString index="141">
            894 1366 rmoveto
            -64 -49 50 66 66 49 50 64 65 49 -50 -66 -66 -49 -50 -65 hvcurveto
            -118 vmoveto
            127 103 105 129 129 -103 105 -127 47 callsubr
            hvcurveto
            endchar
          </CharString>
          <CharString index="142">
            1639 139 callgsubr
            -551 343 56 callsubr
            return
          </CharString>
          <CharString index="143">
            -188 81 callgsubr
            return
          </CharString>
          <CharString index="144">
            65 callgsubr
            152 hlineto
            106 134 callsubr
          </CharString>
          <CharString index="145">
            153 callgsubr
            138 -146 rlineto
            return
          </CharString>
          <CharString index="146">
            rmoveto
            -206 54 callgsubr
            return
          </CharString>
          <CharString index="147">
            rmoveto
            683 hlineto
            23 115 callgsubr
            return
          </CharString>
          <CharString index="148">
            -198 119 callsubr
            return
          </CharString>
          <CharString index="149">
            rmoveto
            86 40 -158 39 callgsubr
            12 hvcurveto
            -153 hlineto
            -105 -6 -27 -45 -57 -86 -40 -45 callsubr
            107 5 28 46 57 hhcurveto
            return
          </CharString>
          <CharString index="150">
            rmoveto
            304 645 rlineto
            7 hlineto
            72 -645 rlineto
            274 -567 rmoveto
            -198 1443 rlineto
            -232 63 callsubr
            216 hlineto
            188 398 rlineto
            481 hlineto
            44 -398 rlineto
            endchar
          </CharString>
          <CharString index="151">
            97 callsubr
            endchar
          </CharString>
          <CharString index="152">
            1610 83 callgsubr
            -111 hhcurveto
            -120 -60 82 111 15 121 callsubr
            -173 -34 134 -147 205 hhcurveto
            endchar
          </CharString>
          <CharString index="153">
            126 103 105 129 129 -103 105 -126 return
          </CharString>
          <CharString index="154">
            -126 -103 -105 -129 -129 103 -105 126 return
          </CharString>
          <CharString index="155">
            -58 59 -68 -67 -59 -59 return
          </CharString>
          <CharString index="156">
            -138 -604 rlineto
            -585 -151 -26 -65 -114 hhcurveto
            -19 -24 4 6 -19 hvcurveto
            -35 -198 rlineto
            -6 17 52 -8 28 hhcurveto
            247 65 134 706 175 hvcurveto
            97 431 rlineto
            459 hlineto
            return
          </CharString>
          <CharString index="157">
            rmoveto
            110 85 84 110 108 -85 84 -110 -111 -85 -84 -108 -110 85 -84 111 hvcurveto
            93 vmoveto
            -57 -44 42 58 57 44 42 57 57 43 -42 -57 -57 -42 -43 -58 hvcurveto
            endchar
          </CharString>
          <CharString index="158">
            rlineto
            221 hlineto
            return
          </CharString>
          <CharString index="159">
            127 callgsubr
            -85 74 -126 -51 -51 -10 -18 -37 vhcurveto
            endchar
          </CharString>
          <CharString index="160">
            216 callsubr
            209 -300 -298 -209 -203 -352 -62 vhcurveto
            49 callgsubr
            -11 return
          </CharString>
          <CharString index="161">
            rmoveto
            16 34 38 9 38 hhcurveto
            62 39 -28 -45 -47 -40 -40 -67 -22 hvcurveto
            return
          </CharString>
          <CharString index="162">
            -96 callgsubr
            181 hlineto
            return
          </CharString>
          <CharString index="163">
            rmoveto
            63 callgsubr
            return
          </CharString>
          <CharString index="164">
            22 callsubr
            59 -9 return
          </CharString>
          <CharString index="165">
            129 191 25 hvcurveto
            return
          </CharString>
          <CharString index="166">
            rmoveto
            27 152 rlineto
            -678 180 callsubr
            endchar
          </CharString>
          <CharString index="167">
            -99 callsubr
            endchar
          </CharString>
          <CharString index="168">
            70 callsubr
            -67 return
          </CharString>
          <CharString index="169">
            57 callgsubr
            110 return
          </CharString>
          <CharString index="170">
            hlineto
            -710 -84 callsubr
            return
          </CharString>
          <CharString index="171">
            hvcurveto
            -118 vmoveto
            46 callsubr
            return
          </CharString>
          <CharString index="172">
            96 callgsubr
            67 -53 callsubr
            60 -67 -68 -58 -60 -70 -70 58 -59 68 hvcurveto
            -421 157 callgsubr
            return
          </CharString>
          <CharString index="173">
            54 callsubr
            68 -100 rlineto
            118 40 71 85 101 vvcurveto
            110 -85 121 callgsubr
          </CharString>
          <CharString index="174">
            -1296 77 callgsubr
          </CharString>
          <CharString index="175">
            rmoveto
            97 11 -134 165 hhcurveto
            129 92 103 143 10 hvcurveto
            -137 hlineto
            -76 -9 -33 -41 -52 -97 -11 133 -166 hhcurveto
            -129 -91 -98 -150 -11 hvcurveto
            return
          </CharString>
          <CharString index="176">
            1366 -64 callgsubr
            return
          </CharString>
          <CharString index="177">
            1643 rmoveto
            -71 callgsubr
            return
          </CharString>
          <CharString index="178">
            142 callsubr
            -211 hlineto
            return
          </CharString>
          <CharString index="179">
            -100 rlineto
            119 40 70 85 return
          </CharString>
          <CharString index="180">
            hlineto
            230 -307 rlineto
            return
          </CharString>
          <CharString index="181">
            rmoveto
            -30 callgsubr
            408 hmoveto
            65 52 54 66 190 callgsubr
            -64 -53 -54 -67 -66 53 -54 64 hvcurveto
            return
          </CharString>
          <CharString index="182">
            -76 -116 hhcurveto
            -117 -70 74 111 return
          </CharString>
          <CharString index="183">
            hhcurveto
            140 93 113 184 return
          </CharString>
          <CharString index="184">
            hlineto
            -13 callsubr
            return
          </CharString>
          <CharString index="185">
            25 hvcurveto
            -161 hlineto
            -113 -17 -77 160 callsubr
            -119 -60 146 callsubr
          </CharString>
          <CharString index="186">
            rmoveto
            -162 252 182 callgsubr
            184 -252 rlineto
            return
          </CharString>
          <CharString index="187">
            hlineto
            114 643 rlineto
            return
          </CharString>
          <CharString index="188">
            hvcurveto
            -108 -612 rlineto
            return
          </CharString>
          <CharString index="189">
            -77 rlineto
            -5 -28 -2 -29 -27 vvcurveto
            -139 76 -84 125 vhcurveto
            -70 239 rmoveto
            22 2 23 6 30 vhcurveto
            7 41 rlineto
            111 20 39 55 63 hhcurveto
            return
          </CharString>
          <CharString index="190">
            149 callsubr
            158 hlineto
            110 21 96 75 return
          </CharString>
          <CharString index="191">
            rmoveto
            103 callsubr
            return
          </CharString>
          <CharString index="192">
            341 1090 rmoveto
            170 callsubr
            384 hlineto
            -164 -922 rlineto
            202 hlineto
            163 922 rlineto
            383 hlineto
            29 168 rlineto
            endchar
          </CharString>
          <CharString index="193">
            1730 rmoveto
            236 241 rlineto
            -195 hlineto
            -205 -241 rlineto
            31 -502 rmoveto
            116 90 88 116 115 -90 88 -116 return
          </CharString>
          <CharString index="194">
            78 98 callsubr
            return
          </CharString>
          <CharString index="195">
            65 52 53 67 67 -52 53 -65 return
          </CharString>
          <CharString index="196">
            115 callsubr
            59 -67 return
          </CharString>
          <CharString index="197">
            hlineto
            37 callgsubr
            return
          </CharString>
          <CharString index="198">
            -67 -59 -59 -70 -70 59 return
          </CharString>
          <CharString index="199">
            -323 -243 rlineto
            return
          </CharString>
          <CharString index="200">
            rmoveto
            86 40 -158 173 callgsubr
            -105 -5 -27 -45 128 callgsubr
            return
          </CharString>
          <CharString index="201">
            1625 -100 callsubr
            return
          </CharString>
          <CharString index="202">
            rmoveto
            -157 303 171 callsubr
            187 -303 rlineto
            353 -304 59 callsubr
          </CharString>
          <CharString index="203">
            1639 rmoveto
            -205 hlineto
            183 -343 rlineto
            180 hlineto
            -551 343 206 callgsubr
            return
          </CharString>
          <CharString index="204">
            rmoveto
            -1491 -1278 -29 -165 1491 1278 rlineto
            return
          </CharString>
          <CharString index="205">
            116 15 hvcurveto
            -156 159 callsubr
            -153 212 hhcurveto
            return
          </CharString>
          <CharString index="206">
            208 5 callsubr
            return
          </CharString>
          <CharString index="207">
            31 185 rlineto
            return
          </CharString>
          <CharString index="208">
            106 callgsubr
            -58 -332 rlineto
            -196 hlineto
            -24 -141 rlineto
            195 hlineto
            return
          </CharString>
          <CharString index="209">
            rmoveto
            152 141 callsubr
            return
          </CharString>
          <CharString index="210">
            215 182 callsubr
            return
          </CharString>
          <CharString index="211">
            rlineto
            -218 hlineto
            return
          </CharString>
          <CharString index="212">
            22 callgsubr
            -210 2 callsubr
            endchar
          </CharString>
          <CharString index="213">
            rmoveto
            -427 -423 110 callgsubr
            421 420 1 4 -273 420 171 callgsubr
            270 -417 rlineto
            return
          </CharString>
          <CharString index="214">
            120 callsubr
            endchar
          </CharString>
          <CharString index="215">
            rlineto
            -196 hlineto
            -28 -165 rlineto
            return
          </CharString>
          <CharString index="216">
            rlineto
            511 hlineto
            -44 -251 rlineto
            return
          </CharString>
          <CharString index="217">
            rlineto
            333 hlineto
            193 callgsubr
            -332 hlineto
            58 330 224 callgsubr
            -36 -204 191 callsubr
            endchar
          </CharString>
          <CharString index="218">
            -32 1 2 -16 hvcurveto
            -30 -174 rlineto
            -3 24 41 -3 53 hhcurveto
            return
          </CharString>
          <CharString index="219">
            109 callsubr
            189 hlineto
            return
          </CharString>
          <CharString index="220">
            54 hlineto
            89 44 177 callgsubr
            return
          </CharString>
          <CharString index="221">
            rmoveto
            -95 callsubr
            return
          </CharString>
          <CharString index="222">
            67 59 59 70 70 -59 return
          </CharString>
          <CharString index="223">
            109 624 rlineto
            return
          </CharString>
          <CharString index="224">
            -219 hlineto
            -446 -772 rlineto
            -8 hlineto
            -166 772 rlineto
            -204 -42 callgsubr
            164 hlineto
            return
          </CharString>
          <CharString index="225">
            rlineto
            294 hlineto
            return
          </CharString>
          <CharString index="226">
            rlineto
            190 hlineto
            return
          </CharString>
          <CharString index="227">
            hvcurveto
            -151 hlineto
            -178 -29 138 -138 207 hhcurveto
            return
          </CharString>
          <CharString index="228">
            hvcurveto
            -155 hlineto
            return
          </CharString>
          <CharString index="229">
            -109 -118 vvcurveto
            -204 126 -140 182 164 121 119 160 vhcurveto
            endchar
          </CharString>
          <CharString index="230">
            -206 -160 -126 -190 -34 hvcurveto
            return
          </CharString>
          <CharString index="231">
            14 hvcurveto
            -156 159 callsubr
            return
          </CharString>
          <CharString index="232">
            160 callsubr
            -120 return
          </CharString>
          <CharString index="233">
            -34 -70 -21 -2 -24 -6 -31 hvcurveto
            -7 -40 rlineto
            -111 -20 -40 -55 -62 hhcurveto
            -55 -28 35 69 hvcurveto
            return
          </CharString>
          <CharString index="234">
            1329 rmoveto
            90 65 62 86 87 -65 62 -90 -89 return
          </CharString>
          <CharString index="235">
            29 callgsubr
            -240 hlineto
            return
          </CharString>
          <CharString index="236">
            49 callgsubr
            -11 -53 -4 return
          </CharString>
          <CharString index="237">
            -147 206 hhcurveto
            return
          </CharString>
          <CharString index="238">
            hhcurveto
            266 182 return
          </CharString>
          <CharString index="239">
            295 295 -227 231 -291 -291 -227 -231 -295 -295 227 return
          </CharString>
          <CharString index="240">
            574 -476 rmoveto
            -64 -49 50 66 66 49 51 64 65 48 -51 -66 -66 -48 -50 -65 hvcurveto
            return
          </CharString>
          <CharString index="241">
            6 170 callgsubr
          </CharString>
          <CharString index="242">
            rmoveto
            192 callsubr
            71 48 callsubr
            -71 101 callgsubr
            hvcurveto
            421 hmoveto
            return
          </CharString>
          <CharString index="243">
            hvcurveto
            408 hmoveto
            62 49 50 63 63 -49 50 -62 -61 -50 -50 -63 -63 50 -50 61 hvcurveto
            return
          </CharString>
          <CharString index="244">
            1295 -52 callsubr
            return
          </CharString>
          <CharString index="245">
            hlineto
            -79 -444 rlineto
            -526 hlineto
            79 444 rlineto
            return
          </CharString>
          <CharString index="246">
            41 callgsubr
            209 hlineto
            return
          </CharString>
          <CharString index="247">
            209 callsubr
            213 -307 rlineto
            return
          </CharString>
          <CharString index="248">
            hlineto
            149 351 192 callgsubr
            return
          </CharString>
          <CharString index="249">
            hlineto
            320 307 rlineto
            return
          </CharString>
          <CharString index="250">
            -57 -86 -41 -45 callsubr
            return
          </CharString>
          <CharString index="251">
            1820 rmoveto
            13 26 45 9 44 hhcurveto
            62 38 -28 -44 -42 -42 -45 -69 -22 hvcurveto
            return
          </CharString>
          <CharString index="252">
            -182 21 callgsubr
            return
          </CharString>
          <CharString index="253">
            82 111 14 121 callsubr
            -173 -34 134 130 callsubr
            endchar
          </CharString>
          <CharString index="254">
            rmoveto
            73 63 63 75 75 -63 196 callgsubr
          </CharString>
          <CharString index="255">
            89 59 91 136 81 -40 44 -74 -86 -61 -95 -133 -80 39 -44 74 hvcurveto
            return
          </CharString>
          <CharString index="256">
            rmoveto
            123 callsubr
            return
          </CharString>
          <CharString index="257">
            rrcurveto
            82 86 44 109 118 vvcurveto
            203 return
          </CharString>
          <CharString index="258">
            114 -70 86 -121 30 return
          </CharString>
          <CharString index="259">
            -104 199 callsubr
            -106 return
          </CharString>
          <CharString index="260">
            -50 -285 rlineto
            return
          </CharString>
          <CharString index="261">
            82 110 14 121 callsubr
            -172 -34 134 130 callsubr
            return
          </CharString>
          <CharString index="262">
            444 rlineto
            -197 -42 callgsubr
            197 hlineto
            85 478 rlineto
            return
          </CharString>
          <CharString index="263">
            rmoveto
            84 66 67 84 83 -66 67 -84 -83 -67 -67 -83 -84 67 -67 83 hvcurveto
            return
          </CharString>
          <CharString index="264">
            hlineto
            -661 -634 rlineto
            -41 hlineto
            return
          </CharString>
          <CharString index="265">
            rmoveto
            -13 callsubr
            677 hlineto
            return
          </CharString>
          <CharString index="266">
            hlineto
            -184 -34 148 return
          </CharString>
          <CharString index="267">
            -80 -111 hhcurveto
            return
          </CharString>
          <CharString index="268">
            66 54 55 68 67 -54 56 -66 -66 -54 -56 -67 -68 54 -55 66 hvcurveto
            return
          </CharString>
          <CharString index="269">
            -98 42 -71 94 -46 hvcurveto
            -2 -12 rlineto
            -154 -29 -91 -100 -144 vvcurveto
            return
          </CharString>
          <CharString index="270">
            1876 rmoveto
            -124 229 rlineto
            -187 hlineto
            154 -229 rlineto
            return
          </CharString>
          <CharString index="271">
            -134 166 hhcurveto
            128 92 103 143 11 hvcurveto
            -138 hlineto
            -76 return
          </CharString>
          <CharString index="272">
            -170 rlineto
            -5 52 140 -2 71 hhcurveto
            return
          </CharString>
          <CharString index="273">
            42 39 4 9 26 vhcurveto
            22 130 rlineto
            return
          </CharString>
          <CharString index="274">
            1076 rlineto
            15 hlineto
            return
          </CharString>
          <CharString index="275">
            rlineto
            -194 hlineto
            return
          </CharString>
          <CharString index="276">
            186 callsubr
            endchar
          </CharString>
          <CharString index="277">
            -29 -168 rlineto
            return
          </CharString>
          <CharString index="278">
            rlineto
            -205 hlineto
            return
          </CharString>
          <CharString index="279" raw="1">
            4545c550 cf1ffc39 16f7070a 0b
          </CharString>
          <CharString index="280">
            198 251 205 -142 130 -254 hvcurveto
            endchar
          </CharString>
          <CharString index="281">
            -11 -126 -57 -79 -83 rrcurveto
            -82 -86 return
          </CharString>
          <CharString index="282">
            rmoveto
            -179 343 rlineto
            -230 hlineto
            return
          </CharString>
          <CharString index="283">
            hlineto
            178 callgsubr
            return
          </CharString>
          <CharString index="284">
            hlineto
            164 925 rlineto
            return
          </CharString>
          <CharString index="285">
            hlineto
            -191 -1090 rlineto
            return
          </CharString>
          <CharString index="286">
            hlineto
            -164 -925 rlineto
            return
          </CharString>
          <CharString index="287">
            hlineto
            -26 -152 rlineto
            return
          </CharString>
          <CharString index="288">
            -5 -27 -44 -57 -86 return
          </CharString>
          <CharString index="289">
            161 135 return
          </CharString>
          <CharString index="290">
            -638 rlineto
            541 hmoveto
            265 638 rlineto
            -184 hlineto
            return
          </CharString>
          <CharString index="291">
            -8 -93 rlineto
            113 callsubr
            return
          </CharString>
          <CharString index="292">
            -32 callgsubr
            206 hlineto
            114 return
          </CharString>
          <CharString index="293">
            rmoveto
            329 113 callgsubr
            return
          </CharString>
          <CharString index="294">
            214 callsubr
            -27 -151 rlineto
            678 hlineto
            return
          </CharString>
          <CharString index="295">
            rmoveto
            133 98 102 170 29 hvcurveto
            14 76 rlineto
            5 30 return
          </CharString>
          <CharString index="296">
            hvcurveto
            -56 callgsubr
            endchar
          </CharString>
          <CharString index="297">
            27 162 rlineto
            return
          </CharString>
          <CharString index="298">
            rlineto
            177 hlineto
            return
          </CharString>
          <CharString index="299">
            68 58 59 70 return
          </CharString>
          <CharString index="300">
            rlineto
            -200 hlineto
            return
          </CharString>
          <CharString index="301">
            hvcurveto
            -145 hlineto
            -169 -2 127 -104 206 hhcurveto
            return
          </CharString>
          <CharString index="302">
            -61 callsubr
            60 -68 hvcurveto
            -51 318 rmoveto
            return
          </CharString>
          <CharString index="303">
            40 callsubr
            endchar
          </CharString>
          <CharString index="304">
            hvcurveto
            162 hlineto
            112 17 76 return
          </CharString>
          <CharString index="305">
            11 hvcurveto
            -153 hlineto
            -105 -5 -27 return
          </CharString>
          <CharString index="306">
            -156 hhcurveto
            -158 return
          </CharString>
          <CharString index="307">
            -127 -51 -50 -10 return
          </CharString>
          <CharString index="308">
            rlineto
            198 hlineto
            return
          </CharString>
          <CharString index="309">
            -65 -52 -54 -67 return
          </CharString>
          <CharString index="310">
            1821 176 callgsubr
            return
          </CharString>
          <CharString index="311">
            220 -93 vhcurveto
            142 -57 56 -30 -85 vvcurveto
            -43 return
          </CharString>
          <CharString index="312">
            110 43 63 75 90 vvcurveto
            83 -69 56 -103 -45 return
          </CharString>
          <CharString index="313">
            hvcurveto
            139 hlineto
            79 7 33 41 53 hhcurveto
            endchar
          </CharString>
          <CharString index="314">
            307 rlineto
            -239 hlineto
            return
          </CharString>
          <CharString index="315">
            130 190 25 hvcurveto
            return
          </CharString>
          <CharString index="316">
            rmoveto
            -200 hlineto
            return
          </CharString>
          <CharString index="317">
            rmoveto
            262 46 122 133 184 hhcurveto
            return
          </CharString>
          <CharString index="318">
            58 -65 -66 -57 -58 -68 -68 57 -58 66 hvcurveto
            return
          </CharString>
          <CharString index="319">
            -41 -51 -98 -11 133 -165 hhcurveto
            -130 return
          </CharString>
          <CharString index="320">
            hvcurveto
            156 hlineto
            184 34 -148 152 return
          </CharString>
          <CharString index="321">
            1517 rmoveto
            -677 hlineto
            return
          </CharString>
          <CharString index="322">
            hlineto
            -85 -478 rlineto
            return
          </CharString>
          <CharString index="323">
            vvcurveto
            313 -199 return
          </CharString>
          <CharString index="324">
            hlineto
            -32 -185 rlineto
            return
          </CharString>
          <CharString index="325">
            48 vhcurveto
            14 hlineto
            return
          </CharString>
          <CharString index="326">
            1258 rlineto
            return
          </CharString>
          <CharString index="327">
            hlineto
            -25 -148 return
          </CharString>
          <CharString index="328">
            rmoveto
            -84 -66 -67 -84 -83 66 -67 84 83 return
          </CharString>
          <CharString index="329">
            68 callgsubr
            10 63 5 61 69 vvcurveto
            return
          </CharString>
          <CharString index="330">
            49 callgsubr
            -11 -54 -4 -61 -93 vvcurveto
            return
          </CharString>
          <CharString index="331">
            1345 rmoveto
            return
          </CharString>
          <CharString index="332">
            hvcurveto
            -158 hlineto
            return
          </CharString>
          <CharString index="333">
            27 158 rlineto
            return
          </CharString>
        <CharString name=".notdef">
          endchar
        </CharString>
        <CharString name="A">
          544 567 -71 callsubr
        </CharString>
        <CharString name="AE">
          738 589 -34 callgsubr
        </CharString>
        <CharString name="AEacute">
          1508 70 callgsubr
          -316 -362 rmoveto
          -117 -659 rlineto
          -264 hlineto
          290 659 rlineto
          -761 -1248 rmoveto
          212 hlineto
          182 413 rlineto
          309 hlineto
          -73 -413 rlineto
          604 hlineto
          32 185 rlineto
          -416 hlineto
          82 454 rlineto
          379 hlineto
          30 176 rlineto
          -379 hlineto
          80 444 224 callgsubr
          30 184 rlineto
          -827 hlineto
          endchar
        </CharString>
        <CharString name="AEmacron">
          1481 1836 rmoveto
          -677 77 callsubr
          677 hlineto
          -717 -1096 -34 callgsubr
        </CharString>
        <CharString name="Aacute">
          1320 70 callgsubr
          -439 -1043 -101 callgsubr
          endchar
        </CharString>
        <CharString name="Abreve">
          544 567 -101 callgsubr
          162 477 rmoveto
          9 callgsubr
          -29 138 -138 207 hhcurveto
          124 callgsubr
          endchar
        </CharString>
        <CharString name="Abreveacute">
          1241 2105 rmoveto
          -202 hlineto
          -205 -229 rlineto
          173 hlineto
          -463 -1309 -101 callgsubr
          149 424 rmoveto
          -93 -14 -86 -67 -114 hhcurveto
          -111 -73 64 96 -4 225 callsubr
          -169 -6 136 -118 208 hhcurveto
          201 156 120 167 23 hvcurveto
          endchar
        </CharString>
        <CharString name="Abrevedotbelow">
          576 145 callsubr
          -32 749 -101 callgsubr
          162 477 rmoveto
          9 callgsubr
          -29 138 -138 207 hhcurveto
          124 callgsubr
          endchar
        </CharString>
        <CharString name="Abrevegrave">
          1060 163 callsubr
          -359 -1309 -101 callgsubr
          149 424 rmoveto
          -93 -14 -86 -67 -114 hhcurveto
          -111 -73 64 96 -4 225 callsubr
          -169 -6 136 -118 208 hhcurveto
          201 156 120 167 23 hvcurveto
          endchar
        </CharString>
        <CharString name="Abrevehookabove">
          935 1791 rmoveto
          205 callsubr
          -48 -8 -12 -37 vhcurveto
          -19 -106 rlineto
          11 23 44 7 37 hhcurveto
          50 29 -21 -37 -43 -38 -40 -63 -22 hvcurveto
          -325 -1300 -101 callgsubr
          148 410 rmoveto
          -93 -14 -84 -60 -115 hhcurveto
          -119 -71 57 96 -6 194 callsubr
          202 149 108 165 26 hvcurveto
          endchar
        </CharString>
        <CharString name="Abrevetilde">
          1206 2099 rmoveto
          154 callgsubr
          -3 hvcurveto
          142 hlineto
          59 2 39 39 55 172 callgsubr
          -798 -1532 -101 callgsubr
          -410 384 rmoveto
          -153 10 127 -94 195 hhcurveto
          122 callgsubr
          endchar
        </CharString>
        <CharString name="Acaron">
          1010 1606 rmoveto
          339 -19 callgsubr
          229 -315 rlineto
          -277 -1039 -101 callgsubr
          endchar
        </CharString>
        <CharString name="Acircumflex">
          94 callgsubr
          -210 -1042 -101 callgsubr
          endchar
        </CharString>
        <CharString name="Acircumflexacute">
          544 567 -101 callgsubr
          -156 378 rmoveto
          -11 callsubr
          -238 243 rlineto
          362 284 rmoveto
          -248 -252 rlineto
          187 hlineto
          271 252 rlineto
          endchar
        </CharString>
        <CharString name="Acircumflexdotbelow">
          94 callgsubr
          -178 -1791 21 callgsubr
          -32 749 -101 callgsubr
          endchar
        </CharString>
        <CharString name="Acircumflexgrave">
          1407 163 callgsubr
          -687 -1286 -101 callgsubr
          -154 378 rmoveto
          -10 callgsubr
          -238 243 rlineto
          endchar
        </CharString>
        <CharString name="Acircumflexhookabove">
          544 567 -101 callgsubr
          -154 378 rmoveto
          -10 callgsubr
          -238 243 rlineto
          73 183 6 callsubr
        </CharString>
        <CharString name="Acircumflextilde">
          1213 2119 rmoveto
          -71 -8 -33 -40 -50 -99 -10 127 -164 hhcurveto
          -127 -91 -95 -144 -9 hvcurveto
          137 hlineto
          74 7 32 39 52 99 9 -127 164 hhcurveto
          126 92 99 138 9 hvcurveto
          -805 -1552 -101 callgsubr
          -155 378 rmoveto
          -11 callsubr
          -238 243 rlineto
          endchar
        </CharString>
        <CharString name="Acyrillic">
          544 567 -71 callsubr
        </CharString>
        <CharString name="Adblgrave">
          1195 1610 rmoveto
          -193 307 193 callsubr
          213 -307 rlineto
          -210 hmoveto
          -194 307 rlineto
          -199 hlineto
          213 -307 rlineto
          -81 -1043 -71 callsubr
        </CharString>
        <CharString name="Adieresis">
          -6 callsubr
        </CharString>
        <CharString name="Adieresismacron">
          544 567 -101 callgsubr
          -162 242 rmoveto
          67 -53 53 -64 88 callgsubr
          64 53 53 67 vhcurveto
          291 120 rmoveto
          88 callgsubr
          88 callsubr
          hvcurveto
          -499 269 rmoveto
          -22 -133 rlineto
          683 hlineto
          22 133 rlineto
          endchar
        </CharString>
        <CharString name="Adotaccent">
          946 1628 -98 callgsubr
          -402 -1061 -71 callsubr
        </CharString>
        <CharString name="Adotbelow">
          576 145 callsubr
          -32 749 43 callsubr
        </CharString>
        <CharString name="Adotmacron">
          544 567 -101 callgsubr
          42 256 rmoveto
          71 -55 56 -69 -69 -56 -56 -71 -71 56 -56 69 69 55 56 71 vhcurveto
          -401 375 rmoveto
          -23 -133 rlineto
          683 hlineto
          23 133 rlineto
          endchar
        </CharString>
        <CharString name="Agrave">
          993 1610 rmoveto
          -204 307 rlineto
          -225 73 callsubr
          -250 -1043 -71 callsubr
        </CharString>
        <CharString name="Ahookabove">
          933 1569 rmoveto
          116 38 74 85 99 vvcurveto
          108 -84 69 -126 -48 -52 -10 -15 -38 vhcurveto
          -9 -123 rlineto
          13 26 45 9 44 hhcurveto
          62 38 -28 -44 -42 -42 -45 -69 -22 hvcurveto
          -326 -1094 -71 callsubr
        </CharString>
        <CharString name="Ainvertedbreve">
          544 567 -101 callgsubr
          -259 161 rmoveto
          110 21 61 callgsubr
          -207 hhcurveto
          123 callsubr
          endchar
        </CharString>
        <CharString name="Alphagreek">
          544 567 -71 callsubr
        </CharString>
        <CharString name="Alphatonosgreek">
          649 -3 callgsubr
          -218 hlineto
          -169 -354 rlineto
          154 hlineto
          227 -522 rmoveto
          261 645 rlineto
          8 hlineto
          31 -645 rlineto
          27 -567 rmoveto
          207 hlineto
          -115 152 callgsubr
          -622 -1443 110 callgsubr
          161 398 rlineto
          376 hlineto
          endchar
        </CharString>
        <CharString name="Amacron">
          544 567 -101 callgsubr
          -387 393 86 callgsubr
        </CharString>
        <CharString name="Aogonek">
          849 1212 rmoveto
          7 hlineto
          74 -645 rlineto
          -388 hlineto
          444 -530 rmoveto
          -135 -64 -75 -92 -105 vvcurveto
          -124 98 -86 141 166 callsubr
          -3 -15 -21 -1 -23 hhcurveto
          -77 -52 43 66 87 85 66 160 33 hvcurveto
          -197 -55 callsubr
          -233 63 callsubr
          217 hlineto
          190 398 rlineto
          477 hlineto
          endchar
        </CharString>
        <CharString name="Aring">
          922 1849 rmoveto
          57 43 -42 -57 -57 -42 -43 -58 -57 -43 42 58 57 43 42 57 hvcurveto
          -292 vmoveto
          111 85 84 110 108 -85 84 -111 -111 -85 -84 -108 -110 86 -84 110 hvcurveto
          -378 -990 -71 callsubr
        </CharString>
        <CharString name="Aringacute">
          1222 2170 rmoveto
          -195 hlineto
          -144 -178 rlineto
          172 hlineto
          -126 -157 rmoveto
          57 43 -42 -57 -58 -42 -42 -58 -57 -43 42 58 57 43 42 57 hvcurveto
          -293 vmoveto
          111 85 85 109 109 -85 84 -111 -111 -85 -84 -109 -109 86 -85 110 hvcurveto
          -385 -975 -101 callgsubr
          endchar
        </CharString>
        <CharString name="Aringbelow">
          133 callsubr
          350 vmoveto
          47 callsubr
          46 callsubr
          hvcurveto
          -30 693 43 callsubr
        </CharString>
        <CharString name="Atilde">
          544 567 -101 callgsubr
          156 443 rmoveto
          -92 -8 -34 -50 -55 114 callgsubr
          -90 -108 -171 -11 hvcurveto
          139 hlineto
          95 7 34 49 56 97 29 10 callgsubr
          10 hvcurveto
          endchar
        </CharString>
        <CharString name="B">
          -89 callgsubr
          endchar
        </CharString>
        <CharString name="Bdotaccent">
          -89 callgsubr
          470 185 -98 callgsubr
          endchar
        </CharString>
        <CharString name="Bdotbelow">
          -89 callgsubr
          94 -1905 -52 callsubr
          endchar
        </CharString>
        <CharString name="Becyrillic">
          697 hmoveto
          326 229 196 279 247 -164 153 -266 hvcurveto
          -290 hlineto
          70 383 rlineto
          660 -21 callgsubr
          -869 -96 callgsubr
          240 180 rmoveto
          93 521 rlineto
          263 hlineto
          176 96 -83 -150 -169 -139 -119 -202 hvcurveto
          endchar
        </CharString>
        <CharString name="Betagreek">
          -89 callgsubr
          endchar
        </CharString>
        <CharString name="Blinebelow">
          -89 callgsubr
          419 -1848 -64 callgsubr
          endchar
        </CharString>
        <CharString name="C">
          -93 callsubr
          endchar
        </CharString>
        <CharString name="Cacute">
          -93 callsubr
          -479 1197 -54 callgsubr
          -239 hlineto
          endchar
        </CharString>
        <CharString name="Ccaron">
          -93 callsubr
          -426 1193 -48 callgsubr
        </CharString>
        <CharString name="Ccedilla">
          1341 957 -74 callsubr
        </CharString>
        <CharString name="Ccedillaacute">
          1325 160 callgsubr
          -239 hlineto
          -312 -307 rlineto
          214 hlineto
          353 -653 -74 callsubr
        </CharString>
        <CharString name="Ccircumflex">
          -93 callsubr
          -175 1512 -11 callgsubr
        </CharString>
        <CharString name="Cdotaccent">
          -93 callsubr
          -302 1215 -98 callgsubr
          endchar
        </CharString>
        <CharString name="Checyrillic">
          1387 -3 callgsubr
          -208 hlineto
          -39 callgsubr
          -113 -637 rlineto
          208 hlineto
          endchar
        </CharString>
        <CharString name="Chigreek">
          -53 callgsubr
          endchar
        </CharString>
        <CharString name="D">
          -90 callgsubr
          endchar
        </CharString>
        <CharString name="Dcaron">
          -90 callgsubr
          182 346 rmoveto
          189 hlineto
          339 -19 callgsubr
          endchar
        </CharString>
        <CharString name="Dcircumflexbelow">
          -90 callgsubr
          -155 -1424 -70 callgsubr
        </CharString>
        <CharString name="Dcommaaccent">
          -90 callgsubr
          -73 -1763 -35 callsubr
        </CharString>
        <CharString name="Dcroat">
          398 177 rmoveto
          85 475 rlineto
          276 hlineto
          29 170 rlineto
          -275 hlineto
          80 444 rlineto
          166 hlineto
          240 119 -123 -245 -50 -3 -50 -5 -41 hvcurveto
          -1 -13 -18 -104 -2 -10 rrcurveto
          -299 -54 -174 -154 -283 hhcurveto
          -152 202 callgsubr
          -109 -621 rlineto
          -146 hlineto
          -30 -170 rlineto
          146 hlineto
          -115 -652 rlineto
          405 hlineto
          398 240 209 401 72 hvcurveto
          2 15 21 116 1 15 rrcurveto
          6 42 3 54 55 vvcurveto
          340 -195 196 -341 vhcurveto
          endchar
        </CharString>
        <CharString name="Ddotaccent">
          -90 callgsubr
          307 368 -98 callgsubr
          endchar
        </CharString>
        <CharString name="Ddotbelow">
          -90 callgsubr
          -70 -1718 -98 callgsubr
          endchar
        </CharString>
        <CharString name="Decyrillic">
          1068 hmoveto
          -50 -285 119 callsubr
          81 470 rlineto
          -161 176 callsubr
          -813 hlineto
          -202 -864 -55 -233 -57 -109 -88 -52 rlinecurve
          -87 hlineto
          -81 -470 119 callsubr
          50 285 rlineto
          487 1259 rmoveto
          418 hlineto
          -192 -1074 rlineto
          -546 hlineto
          3 18 60 50 45 107 46 196 rlinecurve
          endchar
        </CharString>
        <CharString name="Deltagreek">
          83 hmoveto
          1095 hlineto
          23 132 -198 1311 rlineto
          -232 hlineto
          -666 -1311 rlineto
          238 53 rmoveto
          3 14 502 1017 rlineto
          7 hlineto
          136 -1017 -3 -14 rlineto
          endchar
        </CharString>
        <CharString name="Djecyrillic">
          1323 497 rmoveto
          239 -136 146 -215 -111 -93 -35 -46 -64 vhcurveto
          -8 1 82 457 rlineto
          372 hlineto
          30 184 rlineto
          -926 hlineto
          -31 -184 rlineto
          360 hlineto
          -224 -1259 rlineto
          196 hlineto
          107 608 rlineto
          49 48 94 41 102 hhcurveto
          134 77 -89 -148 -182 -110 -130 -148 -30 -36 5 7 -21 hvcurveto
          -33 -180 rlineto
          -9 23 58 -8 52 hhcurveto
          266 185 227 306 hvcurveto
          endchar
        </CharString>
        <CharString name="Dlinebelow">
          -90 callgsubr
          255 -1661 -28 callsubr
          endchar
        </CharString>
        <CharString name="Dzecyrillic">
          -103 callgsubr
          endchar
        </CharString>
        <CharString name="Dzhecyrillic">
          485 -285 rmoveto
          196 hlineto
          50 285 rlineto
          430 -50 callsubr
          -208 hlineto
          -222 161 callgsubr
          -641 176 callsubr
          -208 -96 callgsubr
          430 hlineto
          endchar
        </CharString>
        <CharString name="E">
          1121 185 -23 callgsubr
        </CharString>
        <CharString name="Eacute">
          1121 185 -103 callsubr
          -304 1610 -54 callgsubr
          -239 hlineto
          endchar
        </CharString>
        <CharString name="Ebreve">
          1121 185 -103 callsubr
          -150 1604 rmoveto
          124 callgsubr
          -158 hlineto
          9 callgsubr
          -28 137 -138 207 hhcurveto
          endchar
        </CharString>
        <CharString name="Ecaron">
          1121 185 -103 callsubr
          -251 1606 -48 callgsubr
        </CharString>
        <CharString name="Ecedilla">
          1313 1258 -4 callgsubr
        </CharString>
        <CharString name="Ecedillabreve">
          1181 1920 rmoveto
          9 callgsubr
          -28 137 -138 207 hhcurveto
          124 callgsubr
          -26 -662 -4 callgsubr
        </CharString>
        <CharString name="Ecircumflex">
          1121 185 -103 callsubr
          -1 1925 -7 callsubr
          endchar
        </CharString>
        <CharString name="Ecircumflexacute">
          1121 185 -103 callsubr
          94 1853 rmoveto
          187 hlineto
          271 252 rlineto
          -210 hlineto
          -361 -284 rmoveto
          -207 54 callgsubr
          endchar
        </CharString>
        <CharString name="Ecircumflexbelow">
          1121 185 -103 callsubr
          -581 -164 -70 callgsubr
        </CharString>
        <CharString name="Ecircumflexdotbelow">
          1121 185 -103 callsubr
          -1 1925 -7 callsubr
          -725 -2067 -98 callgsubr
          endchar
        </CharString>
        <CharString name="Ecircumflexgrave">
          1121 185 -103 callsubr
          334 163 callgsubr
          -176 -32 176 callgsubr
          219 hlineto
          190 38 callsubr
          205 hlineto
          endchar
        </CharString>
        <CharString name="Ecircumflexhookabove">
          1121 185 -103 callsubr
          -18 203 callsubr
          219 hlineto
          190 38 callsubr
          205 hlineto
          -165 426 rmoveto
          11 36 31 5 31 hhcurveto
          55 32 -25 -40 -42 -39 -40 -68 -22 hvcurveto
          67 -81 rlineto
          114 35 67 78 97 vvcurveto
          93 -75 62 -109 -40 -42 -7 -12 -41 vhcurveto
          endchar
        </CharString>
        <CharString name="Ecircumflextilde">
          1121 185 -103 callsubr
          -19 1821 39 callsubr
          -442 431 rmoveto
          99 9 -127 165 hhcurveto
          125 93 99 138 9 hvcurveto
          -137 hlineto
          -71 -8 -32 -40 -51 -99 -9 127 -165 hhcurveto
          -126 -91 -95 -144 -10 hvcurveto
          137 hlineto
          74 7 32 39 52 hhcurveto
          endchar
        </CharString>
        <CharString name="Ecyrillic">
          -34 callsubr
          endchar
        </CharString>
        <CharString name="Edblgrave">
          1018 1917 140 callsubr
          181 hlineto
          -584 307 46 callgsubr
          300 -1425 -23 callgsubr
        </CharString>
        <CharString name="Edieresis">
          1121 185 -103 callsubr
          -340 1643 rmoveto
          68 58 59 70 70 -58 59 -68 -67 -59 -59 -70 -70 59 -48 callsubr
        </CharString>
        <CharString name="Edotaccent">
          1121 185 -103 callsubr
          -127 1628 -98 callgsubr
          endchar
        </CharString>
        <CharString name="Edotbelow">
          1121 185 -103 callsubr
          -496 -458 -98 callgsubr
          endchar
        </CharString>
        <CharString name="Efcyrillic">
          363 779 rmoveto
          37 241 119 117 215 5 -146 -821 rcurveline
          -156 23 -87 102 168 vvcurveto
          31 1 19 7 49 vhcurveto
          1 9 7 46 2 11 rrcurveto
          983 -132 rmoveto
          1 12 12 72 1 11 rrcurveto
          5 28 2 31 47 vvcurveto
          254 -147 163 -254 33 vhcurveto
          29 168 220 callgsubr
          -27 -156 -335 -6 -192 -161 -58 -339 rlinecurve
          -1 -12 -13 -72 -1 -11 rrcurveto
          -4 -29 -2 -33 -43 vvcurveto
          -256 145 -160 258 -33 vhcurveto
          -32 -178 rlineto
          208 hlineto
          28 164 330 6 197 166 57 334 rlinecurve
          -411 481 rmoveto
          158 -25 83 -100 -167 vvcurveto
          -28 -1 -26 -7 -44 vhcurveto
          -9 -6 -45 -2 -10 vhcurveto
          -38 -240 -118 -117 -216 -8 rrcurveto
          endchar
        </CharString>
        <CharString name="Egrave">
          805 -8 callgsubr
          112 -1425 -23 callgsubr
        </CharString>
        <CharString name="Ehookabove">
          1121 185 -103 callsubr
          -307 144 callsubr
          64 -92 rlineto
          116 38 73 85 99 vvcurveto
          108 -83 69 -126 -48 -53 -10 -15 -38 vhcurveto
          endchar
        </CharString>
        <CharString name="Einvertedbreve">
          1121 185 -103 callsubr
          -87 1920 rmoveto
          -206 -160 16 callsubr
          -207 hhcurveto
          endchar
        </CharString>
        <CharString name="Elcyrillic">
          1389 -3 callgsubr
          -851 hlineto
          49 callsubr
          -223 -1258 110 callgsubr
          endchar
        </CharString>
        <CharString name="Emacron">
          1121 185 -103 callsubr
          194 1685 -43 callsubr
          endchar
        </CharString>
        <CharString name="Emacronacute">
          589 1612 rmoveto
          683 hlineto
          22 212 callgsubr
          259 150 callgsubr
          281 -1680 -23 callgsubr
        </CharString>
        <CharString name="Emacrongrave">
          1121 185 -103 callsubr
          -7 1866 rmoveto
          -152 239 220 callgsubr
          174 -239 rlineto
          -307 -253 rmoveto
          682 hlineto
          23 115 callgsubr
          endchar
        </CharString>
        <CharString name="Emcyrillic">
          -74 callgsubr
          endchar
        </CharString>
        <CharString name="Encyrillic">
          -79 callsubr
          endchar
        </CharString>
        <CharString name="Eogonek">
          842 -14 rmoveto
          -116 -51 -53 -78 -98 vvcurveto
          -111 100 -82 137 166 callsubr
          -2 -15 -23 -2 -21 hhcurveto
          -80 -49 39 64 88 86 71 160 38 hvcurveto
          31 180 rlineto
          -667 hlineto
          84 462 rlineto
          622 hlineto
          30 174 rlineto
          -623 hlineto
          79 437 rlineto
          660 -21 callgsubr
          -868 -96 callgsubr
          623 hlineto
          endchar
        </CharString>
        <CharString name="Epsilongreek">
          1121 185 -23 callgsubr
        </CharString>
        <CharString name="Epsilontonosgreek">
          1175 185 rmoveto
          -470 hlineto
          84 462 rlineto
          432 hlineto
          30 174 rlineto
          -432 hlineto
          78 437 rlineto
          470 -21 callgsubr
          -672 -96 callgsubr
          672 hlineto
          -928 1089 140 callgsubr
          endchar
        </CharString>
        <CharString name="Ercyrillic">
          -72 callsubr
          endchar
        </CharString>
        <CharString name="Ereversedcyrillic">
          -97 callsubr
          endchar
        </CharString>
        <CharString name="Escyrillic">
          -93 callsubr
          endchar
        </CharString>
        <CharString name="Etagreek">
          -79 callsubr
          endchar
        </CharString>
        <CharString name="Etatonosgreek">
          1192 hmoveto
          -56 callgsubr
          -191 hlineto
          -110 -622 rlineto
          -383 hlineto
          110 622 rlineto
          -192 -96 callgsubr
          192 hlineto
          115 650 rlineto
          383 hlineto
          -115 -650 rlineto
          -799 1089 -24 callsubr
        </CharString>
        <CharString name="Eth">
          388 185 rmoveto
          83 461 rlineto
          254 hlineto
          30 177 rlineto
          -252 hlineto
          78 437 rlineto
          169 hlineto
          235 121 -128 -249 -45 -3 -46 -5 -37 hvcurveto
          -10 -19 -102 -1 -7 vhcurveto
          -301 -53 -165 -150 -288 hhcurveto
          -170 1258 rmoveto
          -109 -620 rlineto
          -131 215 callgsubr
          130 hlineto
          -114 -646 rlineto
          441 hlineto
          396 233 207 413 72 hvcurveto
          2 11 20 114 1 12 rrcurveto
          5 41 3 51 50 vvcurveto
          349 -192 195 -341 vhcurveto
          endchar
        </CharString>
        <CharString name="Etilde">
          1121 185 -103 callsubr
          -290 1766 rmoveto
          98 28 10 callgsubr
          10 hvcurveto
          -137 44 callgsubr
          7 34 49 56 hhcurveto
          endchar
        </CharString>
        <CharString name="Etildebelow">
          1121 185 -103 callsubr
          -639 33 callgsubr
        </CharString>
        <CharString name="Euro">
          1441 1445 rmoveto
          14 -47 -99 11 -82 hhcurveto
          -384 -262 -182 -343 -112 hvcurveto
          -201 hlineto
          -22 -128 rlineto
          183 hlineto
          -14 -56 -8 -55 -2 -62 rrcurveto
          -190 hlineto
          -22 -128 rlineto
          216 hlineto
          -335 38 271 -206 411 hhcurveto
          8 54 0 1 8 hvcurveto
          32 188 rlineto
          -1 -4 -40 0 -15 hhcurveto
          -304 -188 125 228 -48 hvcurveto
          530 hlineto
          23 128 rlineto
          -565 hlineto
          68 6 47 17 58 vhcurveto
          573 hlineto
          21 128 rlineto
          -547 hlineto
          216 88 189 120 263 hhcurveto
          69 77 -8 -13 48 hvcurveto
          endchar
        </CharString>
        <CharString name="F">
          12 callgsubr
          endchar
        </CharString>
        <CharString name="Fdotaccent">
          12 callgsubr
          747 1628 -85 callsubr
        </CharString>
        <CharString name="G">
          -100 callgsubr
          endchar
        </CharString>
        <CharString name="Gacute">
          -100 callgsubr
          -500 1202 rmoveto
          215 -21 callsubr
          -240 hlineto
          endchar
        </CharString>
        <CharString name="Gammagreek">
          254 hmoveto
          209 176 callsubr
          660 92 callgsubr
          -869 hlineto
          endchar
        </CharString>
        <CharString name="Gbreve">
          -100 callgsubr
          -345 1196 rmoveto
          206 160 126 190 34 hvcurveto
          -159 hlineto
          -109 -20 -96 -76 -116 hhcurveto
          -117 75 callgsubr
        </CharString>
        <CharString name="Gcaron">
          -100 callgsubr
          -447 1198 rmoveto
          188 hlineto
          340 -19 callgsubr
          endchar
        </CharString>
        <CharString name="Gcircumflex">
          -100 callgsubr
          -196 1517 139 callsubr
          207 198 rlineto
          15 hlineto
          136 148 callgsubr
        </CharString>
        <CharString name="Gcommaaccent">
          -100 callgsubr
          -629 -911 -35 callsubr
        </CharString>
        <CharString name="Gdotaccent">
          -100 callgsubr
          -323 1220 -85 callsubr
        </CharString>
        <CharString name="Gecyrillic">
          1466 1443 rmoveto
          -1151 -1 callsubr
          endchar
        </CharString>
        <CharString name="Geupturncyrillic">
          1515 1720 rmoveto
          -189 hlineto
          -49 -277 rlineto
          -962 -1 callsubr
          49 281 rlineto
          1 hlineto
          endchar
        </CharString>
        <CharString name="Gjecyrillic">
          1377 70 callgsubr
          426 -167 rmoveto
          -1151 -1 callsubr
          endchar
        </CharString>
        <CharString name="Gmacron">
          -100 callgsubr
          -1 1277 -28 callsubr
          endchar
        </CharString>
        <CharString name="H">
          -79 callsubr
          endchar
        </CharString>
        <CharString name="Hardsigncyrillic">
          682 922 rmoveto
          91 521 rlineto
          -498 hlineto
          -31 -184 rlineto
          291 hlineto
          -224 -1259 rlineto
          449 hlineto
          332 199 200 328 238 -148 156 -226 hvcurveto
          -270 -180 rmoveto
          215 hlineto
          139 81 -85 -145 -205 -120 -125 -204 hvcurveto
          -211 hlineto
          endchar
        </CharString>
        <CharString name="Hbar">
          505 825 rmoveto
          46 256 rlineto
          544 hlineto
          -46 -256 rlineto
          -571 -182 rmoveto
          536 -20 callgsubr
          209 hlineto
          191 1078 rlineto
          115 hlineto
          26 154 rlineto
          -115 hlineto
          37 211 227 callgsubr
          -37 -211 rlineto
          -536 hlineto
          37 211 227 callgsubr
          -37 -211 rlineto
          -114 hlineto
          -26 -154 rlineto
          114 hlineto
          -191 -1078 rlineto
          209 hlineto
          endchar
        </CharString>
        <CharString name="Hbrevebelow">
          -79 callsubr
          -332 -473 84 callsubr
          201 199 callgsubr
          -115 56 callgsubr
          115 14 hvcurveto
          -155 159 callsubr
          -152 212 hhcurveto
          endchar
        </CharString>
        <CharString name="Hcaron">
          -79 callsubr
          -101 1606 105 callsubr
        </CharString>
        <CharString name="Hcedilla">
          349 hmoveto
          114 643 rlineto
          568 -20 callgsubr
          206 -50 callsubr
          -206 hlineto
          -108 -615 rlineto
          -569 hlineto
          109 615 rlineto
          -32 callgsubr
          51 hlineto
          -37 -127 -18 -100 rlineto
          42 hlineto
          88 43 -24 -47 -44 -42 -24 -72 -38 -65 9 11 -30 hvcurveto
          -21 -115 rlineto
          -16 48 59 -9 49 hhcurveto
          158 103 80 125 83 -56 57 -94 13 hvcurveto
          endchar
        </CharString>
        <CharString name="Hcircumflex">
          -79 callsubr
          149 1925 -7 callsubr
          endchar
        </CharString>
        <CharString name="Hdieresis">
          -79 callsubr
          -190 1643 -57 callsubr
        </CharString>
        <CharString name="Hdotaccent">
          -79 callsubr
          23 1628 -98 callgsubr
          endchar
        </CharString>
        <CharString name="Hdotbelow">
          -79 callsubr
          -341 7 callgsubr
        </CharString>
        <CharString name="I">
          1031 hmoveto
          60 callsubr
        </CharString>
        <CharString name="IAcyrillic">
          1037 552 -67 callgsubr
        </CharString>
        <CharString name="IJ">
          860 -33 0 callgsubr
        </CharString>
        <CharString name="IJacute">
          482 1609 -54 callgsubr
          -240 hlineto
          305 -307 -54 callgsubr
          -239 hlineto
          -550 -1949 0 callgsubr
        </CharString>
        <CharString name="IUcyrillic">
          -93 callgsubr
          endchar
        </CharString>
        <CharString name="Iacute">
          1031 hmoveto
          -99 callsubr
          534 1610 -54 callgsubr
          -239 hlineto
          endchar
        </CharString>
        <CharString name="Ibreve">
          1031 hmoveto
          -99 callsubr
          688 1604 rmoveto
          124 callgsubr
          -158 hlineto
          -109 -21 -95 75 callsubr
          13 hvcurveto
          -152 hlineto
          -178 -28 138 -138 206 hhcurveto
          endchar
        </CharString>
        <CharString name="Icaron">
          1031 hmoveto
          -99 callsubr
          587 1606 -48 callgsubr
        </CharString>
        <CharString name="Icircumflex">
          1031 hmoveto
          -99 callsubr
          838 1925 -11 callgsubr
        </CharString>
        <CharString name="Icyrillic">
          1031 hmoveto
          60 callsubr
        </CharString>
        <CharString name="Idblgrave">
          1003 160 callgsubr
          -201 hlineto
          213 -307 rlineto
          181 hlineto
          -584 307 46 callgsubr
          226 50 callgsubr
        </CharString>
        <CharString name="Idieresis">
          1031 hmoveto
          -99 callsubr
          498 61 callsubr
          -17 callgsubr
          -48 callsubr
        </CharString>
        <CharString name="Idieresisacute">
          1031 hmoveto
          -99 callsubr
          579 1876 rmoveto
          195 hlineto
          264 229 rlineto
          -224 hlineto
          -327 -540 6 callgsubr
        </CharString>
        <CharString name="Idotaccent">
          1031 hmoveto
          -99 callsubr
          711 1628 -98 callgsubr
          endchar
        </CharString>
        <CharString name="Idotbelow">
          1031 hmoveto
          -99 callsubr
          341 -458 -98 callgsubr
          endchar
        </CharString>
        <CharString name="Iecyrillic">
          1121 185 -23 callgsubr
        </CharString>
        <CharString name="Igrave">
          789 -8 callgsubr
          38 50 callgsubr
        </CharString>
        <CharString name="Ihookabove">
          1031 hmoveto
          -99 callsubr
          531 1820 rmoveto
          13 26 46 9 43 hhcurveto
          62 38 -28 -44 -42 -42 -45 -68 2 callgsubr
          -53 -10 -15 -37 vhcurveto
          endchar
        </CharString>
        <CharString name="Iicyrillic">
          398 1443 -58 callgsubr
        </CharString>
        <CharString name="Iinvertedbreve">
          1031 hmoveto
          -99 callsubr
          752 1920 rmoveto
          -206 -161 16 callsubr
          -206 hhcurveto
          endchar
        </CharString>
        <CharString name="Iishortcyrillic">
          1147 1930 rmoveto
          -113 -17 -76 -80 -112 14 callgsubr
          129 191 26 hvcurveto
          -911 -487 -58 callgsubr
        </CharString>
        <CharString name="Imacron">
          1031 hmoveto
          -99 callsubr
          1032 1685 -43 callsubr
          endchar
        </CharString>
        <CharString name="Iocyrillic">
          1121 185 -103 callsubr
          -340 1643 rmoveto
          68 58 59 70 70 -58 59 -68 -67 -59 -59 -70 -70 59 -48 callsubr
        </CharString>
        <CharString name="Iogonek">
          784 hmoveto
          -2 -14 rlineto
          -110 -48 -60 -78 -98 vvcurveto
          -114 100 -82 138 166 callsubr
          -3 -18 -19 -1 -22 hhcurveto
          -79 -50 40 63 88 86 71 155 38 hvcurveto
          30 176 -97 callgsubr
          endchar
        </CharString>
        <CharString name="Iotadieresisgreek">
          1031 hmoveto
          -99 callsubr
          498 61 callsubr
          -17 callgsubr
          -48 callsubr
        </CharString>
        <CharString name="Iotagreek">
          1031 hmoveto
          60 callsubr
        </CharString>
        <CharString name="Iotatonosgreek">
          1184 hmoveto
          31 181 rlineto
          -264 hlineto
          193 1081 rlineto
          264 hlineto
          30 181 rlineto
          -716 hlineto
          -30 -181 rlineto
          263 hlineto
          -193 -1081 rlineto
          -264 hlineto
          -30 -181 rlineto
          -208 1089 -24 callsubr
        </CharString>
        <CharString name="Iotatonosgreek.1">
          890 hmoveto
          -56 callgsubr
          -208 -96 callgsubr
          -363 1089 -24 callsubr
        </CharString>
        <CharString name="Itilde">
          1031 hmoveto
          -99 callsubr
          548 1766 rmoveto
          98 28 10 callgsubr
          11 hvcurveto
          -138 44 callgsubr
          8 33 49 56 hhcurveto
          endchar
        </CharString>
        <CharString name="Itildebelow">
          1031 hmoveto
          -99 callsubr
          197 -311 37 callsubr
        </CharString>
        <CharString name="J">
          -33 callgsubr
          endchar
        </CharString>
        <CharString name="Jcircumflex">
          -33 callgsubr
          479 1955 33 callsubr
        </CharString>
        <CharString name="Jecyrillic">
          -33 callgsubr
          endchar
        </CharString>
        <CharString name="K">
          -76 callsubr
          endchar
        </CharString>
        <CharString name="Kacute">
          -76 callsubr
          -443 1610 -54 callgsubr
          -239 hlineto
          endchar
        </CharString>
        <CharString name="Kacyrillic">
          607 -3 callgsubr
          185 callsubr
          641 rlineto
          46 hlineto
          464 -641 rlineto
          247 hlineto
          -533 726 754 717 rlineto
          -248 157 callsubr
          endchar
        </CharString>
        <CharString name="Kappagreek">
          -76 callsubr
          endchar
        </CharString>
        <CharString name="Kcaron">
          -76 callsubr
          -390 1606 22 callgsubr
          -209 hlineto
          -208 -197 rlineto
          -14 hlineto
          -137 207 callgsubr
        </CharString>
        <CharString name="Kcommaaccent">
          -76 callsubr
          -621 -503 rmoveto
          85 callgsubr
          -206 73 callgsubr
          endchar
        </CharString>
        <CharString name="Kdotbelow">
          -76 callsubr
          -619 -458 -98 callgsubr
          endchar
        </CharString>
        <CharString name="Kjecyrillic">
          721 1610 103 callgsubr
          -426 -474 rmoveto
          185 callsubr
          641 rlineto
          46 hlineto
          464 -641 rlineto
          247 hlineto
          -533 726 754 717 rlineto
          -248 157 callsubr
          endchar
        </CharString>
        <CharString name="Klinebelow">
          -76 callsubr
          -294 -401 -64 callgsubr
          endchar
        </CharString>
        <CharString name="L">
          -47 callgsubr
          endchar
        </CharString>
        <CharString name="Lacute">
          -47 callgsubr
          -635 1610 -54 callgsubr
          -240 hlineto
          endchar
        </CharString>
        <CharString name="Lambdagreek">
          77 hmoveto
          217 hlineto
          553 1205 rlineto
          7 hlineto
          120 -1205 rlineto
          210 hlineto
          -181 152 callgsubr
          endchar
        </CharString>
        <CharString name="Lcaron">
          1020 -3 callgsubr
          -85 -486 rlineto
          139 hlineto
          125 486 rlineto
          -39 -1255 rmoveto
          -668 hlineto
          222 1255 rlineto
          -32 callgsubr
          875 hlineto
          endchar
        </CharString>
        <CharString name="Lcircumflexbelow">
          -47 callgsubr
          -580 -164 -70 callgsubr
        </CharString>
        <CharString name="Lcommaaccent">
          -47 callgsubr
          -498 -503 108 callgsubr
        </CharString>
        <CharString name="Ldot">
          -47 callgsubr
          17 912 -98 callgsubr
          endchar
        </CharString>
        <CharString name="Ldotbelow">
          -47 callgsubr
          -496 7 callgsubr
        </CharString>
        <CharString name="Ldotbelowmacron">
          -47 callgsubr
          -496 -2 callgsubr
          359 2143 -64 callgsubr
          endchar
        </CharString>
        <CharString name="Ljecyrillic">
          895 742 rmoveto
          94 hlineto
          105 58 -76 -138 -208 -108 -143 -156 hvcurveto
          -94 hlineto
          -216 1100 rmoveto
          239 hlineto
          -226 -1276 rlineto
          292 hlineto
          276 175 217 343 220 -113 137 -193 hvcurveto
          -96 hlineto
          95 525 rlineto
          -597 hlineto
          -117 -614 rlineto
          -508 -103 -40 -137 -94 hhcurveto
          -13 -19 5 4 -9 hvcurveto
          -34 -191 rlineto
          -6 17 36 -6 35 hhcurveto
          209 61 177 652 131 hvcurveto
          endchar
        </CharString>
        <CharString name="Llinebelow">
          -47 callgsubr
          -171 -401 -64 callgsubr
          endchar
        </CharString>
        <CharString name="Lslash">
          492 188 rmoveto
          86 485 536 273 32 188 -536 -276 104 585 192 callgsubr
          -124 -702 -198 -102 -31 -181 197 100 -98 -558 rlineto
          875 hlineto
          31 188 rlineto
          endchar
        </CharString>
        <CharString name="M">
          -74 callgsubr
          endchar
        </CharString>
        <CharString name="Macute">
          -74 callgsubr
          493 1610 -54 callgsubr
          -240 hlineto
          endchar
        </CharString>
        <CharString name="Mdotaccent">
          -74 callgsubr
          670 1628 -98 callgsubr
          endchar
        </CharString>
        <CharString name="Mdotbelow">
          -74 callgsubr
          299 7 callgsubr
        </CharString>
        <CharString name="Mugreek">
          -74 callgsubr
          endchar
        </CharString>
        <CharString name="N">
          330 hmoveto
          -82 callgsubr
          endchar
        </CharString>
        <CharString name="Nacute">
          330 hmoveto
          -82 callgsubr
          622 1610 -54 callgsubr
          -239 hlineto
          endchar
        </CharString>
        <CharString name="Ncaron">
          330 hmoveto
          -82 callgsubr
          675 1606 -48 callgsubr
        </CharString>
        <CharString name="Ncircumflexbelow">
          330 hmoveto
          -82 callgsubr
          343 -164 -70 callgsubr
        </CharString>
        <CharString name="Ncommaaccent">
          330 hmoveto
          -82 callgsubr
          425 -503 -35 callsubr
        </CharString>
        <CharString name="Ndotaccent">
          330 hmoveto
          -82 callgsubr
          799 1628 147 callsubr
        </CharString>
        <CharString name="Ndotbelow">
          330 hmoveto
          -82 callgsubr
          428 -458 -98 callgsubr
          endchar
        </CharString>
        <CharString name="Ngrave">
          787 -8 callgsubr
          -661 -1610 rmoveto
          -82 callgsubr
          endchar
        </CharString>
        <CharString name="Njecyrillic">
          266 hmoveto
          115 654 rlineto
          322 hlineto
          -116 -654 rlineto
          272 hlineto
          287 161 175 320 221 -115 113 -199 hvcurveto
          -84 hlineto
          109 614 rlineto
          -177 hlineto
          -108 -614 rlineto
          -322 hlineto
          109 614 rlineto
          -176 -96 callgsubr
          786 657 rmoveto
          92 hlineto
          104 58 -66 -117 -192 -92 -117 -162 hvcurveto
          -88 hlineto
          endchar
        </CharString>
        <CharString name="Nlinebelow">
          330 hmoveto
          -82 callgsubr
          752 -401 -43 callsubr
          endchar
        </CharString>
        <CharString name="Ntilde">
          330 hmoveto
          -82 callgsubr
          636 1766 rmoveto
          98 29 -156 155 hhcurveto
          131 91 113 163 11 hvcurveto
          -138 44 callgsubr
          8 33 49 56 hhcurveto
          endchar
        </CharString>
        <CharString name="Nugreek">
          330 hmoveto
          -82 callgsubr
          endchar
        </CharString>
        <CharString name="NumberSignCyrillic">
          223 callgsubr
          111 132 callgsubr
          -110 1049 rlineto
          -184 -96 callgsubr
          1276 843 rmoveto
          22 124 rlineto
          -336 hlineto
          -22 -124 rlineto
          240 269 rmoveto
          95 76 77 95 95 -76 77 -95 -95 -76 -77 -95 -95 76 -77 95 hvcurveto
          endchar
        </CharString>
        <CharString name="O">
          -106 callgsubr
          endchar
        </CharString>
        <CharString name="OE">
          385 886 rmoveto
          245 44 86 121 131 hhcurveto
          122 62 -91 -180 -78 -5 -56 -14 -70 hvcurveto
          -41 -229 rlineto
          -238 -44 -89 -118 -136 hhcurveto
          -107 -67 95 153 71 7 83 13 78 hvcurveto
          366 -493 rmoveto
          8 hlineto
          -31 -179 rlineto
          566 hlineto
          32 189 rlineto
          -399 hlineto
          83 453 rlineto
          363 hlineto
          31 184 rlineto
          -363 hlineto
          77 427 rlineto
          399 hlineto
          31 190 rlineto
          -566 hlineto
          -41 -234 rlineto
          -9 hlineto
          170 -17 -96 98 -157 hhcurveto
          -225 -144 -181 -365 -62 hvcurveto
          -43 -251 rlineto
          -19 -115 -7 -84 -104 vvcurveto
          -256 114 -154 189 135 85 63 149 66 vhcurveto
          endchar
        </CharString>
        <CharString name="Oacute">
          -106 callgsubr
          65 1450 -54 callgsubr
          -240 hlineto
          endchar
        </CharString>
        <CharString name="Obreve">
          -106 callgsubr
          219 1444 rmoveto
          124 callgsubr
          -158 hlineto
          9 callgsubr
          -29 138 -138 207 hhcurveto
          endchar
        </CharString>
        <CharString name="Ocaron">
          -106 callgsubr
          117 1446 rmoveto
          189 hlineto
          339 -19 callgsubr
          endchar
        </CharString>
        <CharString name="Ocircumflex">
          -106 callgsubr
          368 1765 -7 callsubr
          endchar
        </CharString>
        <CharString name="Ocircumflexacute">
          -106 callgsubr
          463 1693 rmoveto
          187 hlineto
          271 252 rlineto
          -210 hlineto
          -362 -284 39 callsubr
          endchar
        </CharString>
        <CharString name="Ocircumflexdotbelow">
          -106 callgsubr
          368 1765 -7 callsubr
          -726 -2067 -85 callsubr
        </CharString>
        <CharString name="Ocircumflexgrave">
          -106 callgsubr
          703 1693 79 callsubr
          -176 -32 rmoveto
          -206 hlineto
          -10 callgsubr
          endchar
        </CharString>
        <CharString name="Ocircumflexhookabove">
          -106 callgsubr
          351 1661 rmoveto
          -206 hlineto
          -10 callgsubr
          -165 426 6 callsubr
        </CharString>
        <CharString name="Ocircumflextilde">
          -106 callgsubr
          350 1661 rmoveto
          -206 hlineto
          -323 -243 rlineto
          220 hlineto
          190 146 rlineto
          15 hlineto
          139 -146 rlineto
          203 29 callsubr
        </CharString>
        <CharString name="Ocyrillic">
          -106 callgsubr
          endchar
        </CharString>
        <CharString name="Odblgrave">
          1002 1917 46 callgsubr
          -584 307 rmoveto
          -199 hlineto
          213 -307 rlineto
          180 hlineto
          -343 -722 -83 callgsubr
        </CharString>
        <CharString name="Odieresis">
          -106 callgsubr
          29 1483 -57 callsubr
        </CharString>
        <CharString name="Odieresismacron">
          -106 callgsubr
          428 1645 rmoveto
          88 callgsubr
          88 callsubr
          hvcurveto
          184 269 rmoveto
          -683 hlineto
          -22 -133 rlineto
          683 hlineto
          -570 -136 rmoveto
          88 callgsubr
          64 53 53 67 67 -53 53 -64 hvcurveto
          endchar
        </CharString>
        <CharString name="Odotaccent">
          -106 callgsubr
          242 1468 -98 callgsubr
          endchar
        </CharString>
        <CharString name="Odotaccentmacron">
          921 78 callgsubr
          -182 -1186 -83 callgsubr
        </CharString>
        <CharString name="Odotbelow">
          -106 callgsubr
          -128 -618 -85 callsubr
        </CharString>
        <CharString name="Ograve">
          789 -8 callgsubr
          -531 -722 -83 callgsubr
        </CharString>
        <CharString name="Ohookabove">
          -106 callgsubr
          62 1660 rmoveto
          13 26 45 9 44 hhcurveto
          62 38 -28 -44 -42 -42 13 callsubr
          endchar
        </CharString>
        <CharString name="Ohorn">
          463 888 -92 callsubr
          endchar
        </CharString>
        <CharString name="Ohornacute">
          765 1610 103 callgsubr
          -614 -1029 -92 callsubr
          endchar
        </CharString>
        <CharString name="Ohorndotbelow">
          67 callgsubr
          -113 1346 -92 callsubr
          endchar
        </CharString>
        <CharString name="Ohorngrave">
          860 -8 callgsubr
          229 -902 rmoveto
          16 84 9 83 77 vvcurveto
          112 -28 98 -54 86 vhcurveto
          1 7 rlineto
          19 hlineto
          126 -7 93 67 39 128 10 23 18 109 19 101 rrcurveto
          -168 hlineto
          -25 -142 rlineto
          -91 -17 -52 -46 -83 -140 -58 76 -193 hhcurveto
          -300 -207 -202 -353 -63 hvcurveto
          129 callsubr
          -60 -95 vvcurveto
          -303 199 -209 290 309 199 -4 callsubr
          66 vhcurveto
          -799 359 rmoveto
          261 47 121 134 181 hhcurveto
          180 117 -132 -203 -58 -3 -43 -9 -51 109 callgsubr
          -120 -137 -183 hhcurveto
          -182 -116 133 207 51 5 46 11 68 hvcurveto
          endchar
        </CharString>
        <CharString name="Ohornhookabove">
          463 888 -92 callsubr
          -494 1291 5 callgsubr
        </CharString>
        <CharString name="Ohorntilde">
          1161 1886 rmoveto
          -92 -8 -35 -50 -54 64 callgsubr
          -133 181 callgsubr
          -11 hvcurveto
          138 hlineto
          95 8 34 49 56 97 29 10 callgsubr
          10 hvcurveto
          -836 -998 -92 callsubr
          endchar
        </CharString>
        <CharString name="Ohungarumlaut">
          -106 callgsubr
          338 1450 rmoveto
          192 71 callsubr
          -691 -307 rmoveto
          191 71 callsubr
          endchar
        </CharString>
        <CharString name="Oinvertedbreve">
          -106 callgsubr
          282 1760 rmoveto
          -206 -160 -126 -190 -34 hvcurveto
          158 hlineto
          110 21 61 callgsubr
          -207 hhcurveto
          endchar
        </CharString>
        <CharString name="Omacron">
          -106 callgsubr
          563 1525 -64 callgsubr
          endchar
        </CharString>
        <CharString name="Omacronacute">
          573 1612 rmoveto
          683 hlineto
          22 212 callgsubr
          258 150 callgsubr
          -361 -977 -83 callgsubr
        </CharString>
        <CharString name="Omacrongrave">
          -106 callgsubr
          361 1706 97 callgsubr
        </CharString>
        <CharString name="Omegagreek">
          829 1473 rmoveto
          -301 -202 -190 -306 -72 hvcurveto
          -8 -22 -28 -144 -3 -25 rrcurveto
          -8 -47 -4 -53 -53 vvcurveto
          -190 65 -163 110 -86 vhcurveto
          -3 -14 rlineto
          -256 hlineto
          -31 -180 rlineto
          448 hlineto
          38 221 -112 72 -58 148 -1 170 rlinecurve
          41 2 40 7 44 vhcurveto
          2 31 27 141 9 22 rrcurveto
          224 50 129 129 184 hhcurveto
          207 107 -132 -230 -48 -2 -40 -13 -77 hvcurveto
          -5 -33 -22 -94 -15 -24 -47 -195 -115 -144 -150 -51 -36 -215 rcurveline
          470 hlineto
          31 180 rlineto
          -258 hlineto
          3 14 179 98 105 143 46 230 rlinecurve
          3 13 16 89 2 15 rrcurveto
          10 64 2 63 42 vvcurveto
          331 -175 191 -327 vhcurveto
          endchar
        </CharString>
        <CharString name="Omegatonosgreek">
          947 1472 rmoveto
          -280 -181 -195 -375 -67 hvcurveto
          -2 -19 -25 -137 -2 -16 rrcurveto
          -7 -48 -4 -49 -47 vvcurveto
          -170 59 -151 98 -85 vhcurveto
          -2 -13 rlineto
          -229 hlineto
          -29 -167 rlineto
          406 hlineto
          40 245 -100 67 -52 124 -1 151 rlinecurve
          40 3 54 9 50 vhcurveto
          1 15 24 131 3 21 rrcurveto
          270 49 100 116 176 hhcurveto
          173 82 -110 -210 -46 -2 -38 -12 -67 hvcurveto
          -1 -10 -14 -76 -2 -12 -45 -258 -99 -155 -166 -65 -40 -237 rcurveline
          428 hlineto
          29 167 rlineto
          -231 hlineto
          3 13 179 110 84 148 45 253 rlinecurve
          2 14 16 89 1 13 rrcurveto
          10 61 2 68 45 vvcurveto
          322 -147 169 -282 vhcurveto
          -780 -383 -24 callsubr
        </CharString>
        <CharString name="Omicrongreek">
          -106 callgsubr
          endchar
        </CharString>
        <CharString name="Omicrontonosgreek">
          614 455 rmoveto
          56 5 57 11 66 vhcurveto
          50 279 rlineto
          245 44 113 125 134 hhcurveto
          144 64 -120 -165 -37 -7 -95 -14 -86 hvcurveto
          -41 -235 rlineto
          -256 -46 -106 -129 -145 hhcurveto
          -151 -55 131 164 hvcurveto
          698 88 rmoveto
          42 235 rlineto
          14 88 7 97 46 vvcurveto
          281 -129 183 -254 -261 -174 -189 -374 -65 vhcurveto
          -33 -191 rlineto
          -23 -128 -8 -83 -71 vvcurveto
          -292 134 -175 249 264 171 191 382 66 vhcurveto
          -1092 546 -24 callsubr
        </CharString>
        <CharString name="Oogonek">
          871 -431 -47 callsubr
        </CharString>
        <CharString name="Oogonekmacron">
          1269 1685 -64 callgsubr
          279 -2116 -47 callsubr
        </CharString>
        <CharString name="Oslash">
          1059 567 -44 callsubr
        </CharString>
        <CharString name="Oslashacute">
          1313 160 callgsubr
          -239 hlineto
          -312 -307 rlineto
          214 hlineto
          83 -1043 -44 callsubr
        </CharString>
        <CharString name="Otilde">
          -106 callgsubr
          79 1606 rmoveto
          97 29 10 callgsubr
          10 hvcurveto
          -138 hlineto
          -92 -8 -34 -50 -55 114 callgsubr
          -90 -108 -171 -11 hvcurveto
          139 hlineto
          95 7 34 49 56 hhcurveto
          endchar
        </CharString>
        <CharString name="Otildeacute">
          -106 callgsubr
          121 1745 rmoveto
          175 hlineto
          163 224 rlineto
          -199 hlineto
          -199 -436 rmoveto
          98 10 164 callsubr
          -8 -34 212 callsubr
          -90 -98 -150 -12 206 callsubr
        </CharString>
        <CharString name="Otildedieresis">
          -106 callgsubr
          72 1729 rmoveto
          61 50 50 63 63 -50 50 -61 -61 -50 -50 -63 -63 50 -50 61 136 callsubr
          -392 -208 rmoveto
          98 188 callgsubr
          -136 hlineto
          -71 -8 -33 -39 -50 -99 -10 126 -164 hhcurveto
          -127 -91 -95 -143 -10 hvcurveto
          138 hlineto
          73 7 32 40 52 hhcurveto
          endchar
        </CharString>
        <CharString name="Otildemacron">
          -106 callgsubr
          599 1787 rmoveto
          23 115 callgsubr
          -23 -133 rlineto
          177 -254 68 callsubr
          138 hlineto
          79 8 32 41 54 hhcurveto
          endchar
        </CharString>
        <CharString name="P">
          -72 callsubr
          endchar
        </CharString>
        <CharString name="Pacute">
          -72 callsubr
          207 931 -54 callgsubr
          -240 hlineto
          endchar
        </CharString>
        <CharString name="Pdotaccent">
          -72 callsubr
          384 949 -98 callgsubr
          endchar
        </CharString>
        <CharString name="Pecyrillic">
          1402 -3 callgsubr
          -1030 -96 callgsubr
          209 hlineto
          222 219 callsubr
          613 hlineto
          -223 161 callgsubr
          209 hlineto
          endchar
        </CharString>
        <CharString name="Phigreek">
          746 58 rmoveto
          206 2 153 89 101 138 rrcurveto
          108 146 49 201 205 vvcurveto
          298 -139 188 -248 39 vhcurveto
          26 152 rlineto
          -190 220 callsubr
          -207 -3 -152 -88 -101 -137 rlinecurve
          -108 -146 -49 -199 -208 vvcurveto
          -298 138 -188 249 -39 vhcurveto
          -25 -146 rlineto
          188 hlineto
          -373 665 rmoveto
          131 29 183 85 133 vhcurveto
          104 66 97 74 139 hhcurveto
          -174 -979 rlineto
          -153 27 -89 115 212 vvcurveto
          838 264 rmoveto
          -131 -28 -183 -86 -133 vhcurveto
          -104 -66 -97 -74 -139 hhcurveto
          174 979 rlineto
          154 -27 88 -115 -212 vvcurveto
          endchar
        </CharString>
        <CharString name="Pigreek">
          149 hmoveto
          206 hlineto
          222 219 callsubr
          557 hlineto
          -223 -1258 rlineto
          206 -50 callsubr
          -968 hlineto
          endchar
        </CharString>
        <CharString name="Psigreek">
          533 hmoveto
          200 hlineto
          56 311 317 10 163 150 62 356 rlinecurve
          108 616 126 callgsubr
          -103 -587 -48 -270 -95 -103 -198 -2 rlinecurve
          170 962 rlineto
          -186 hlineto
          -169 -954 rlineto
          -153 18 -67 76 146 vvcurveto
          38 6 48 14 80 vhcurveto
          95 548 126 callgsubr
          -94 -535 rlineto
          -13 -81 -7 -64 -55 vvcurveto
          -233 119 -120 249 -34 vhcurveto
          endchar
        </CharString>
        <CharString name="Q">
          1060 563 rmoveto
          -22 -126 -38 -98 -54 -68 -86 190 rcurveline
          -205 hlineto
          134 -296 rlineto
          -7 -27 -28 -4 -30 hhcurveto
          -184 -113 131 211 58 4 47 10 60 hvcurveto
          40 224 rlineto
          265 47 122 133 184 hhcurveto
          182 119 -133 -203 -47 -6 -61 -7 -46 hvcurveto
          -889 -103 rmoveto
          -11 -54 -4 -61 -93 vvcurveto
          -303 201 -209 291 63 59 8 16 54 vhcurveto
          71 -157 rlineto
          205 hlineto
          -110 243 117 93 79 151 37 205 rlinecurve
          68 callgsubr
          10 65 5 62 66 216 callsubr
          209 -300 -298 -209 -203 -352 -62 vhcurveto
          endchar
        </CharString>
        <CharString name="R">
          -99 callgsubr
          endchar
        </CharString>
        <CharString name="Racute">
          -99 callgsubr
          561 1610 -54 callgsubr
          -239 hlineto
          endchar
        </CharString>
        <CharString name="Rcaron">
          -99 callgsubr
          614 1606 -48 callgsubr
        </CharString>
        <CharString name="Rcommaaccent">
          -99 callgsubr
          409 -503 -35 callsubr
        </CharString>
        <CharString name="Rdblgrave">
          964 1917 140 callsubr
          181 hlineto
          -584 307 46 callgsubr
          -390 -1610 rmoveto
          100 563 210 callgsubr
          19 38 1 1 15 hvcurveto
          176 -565 203 callgsubr
          -191 593 183 48 121 134 31 186 rlinecurve
          5 33 2 32 31 vvcurveto
          239 1 -167 147 -253 hhcurveto
          -478 -96 callgsubr
          431 202 callgsubr
          260 hlineto
          155 89 -84 -135 -1 hvcurveto
          -22 -2 -26 -3 -15 vhcurveto
          -156 -28 -120 -97 -196 hhcurveto
          -249 hlineto
          endchar
        </CharString>
        <CharString name="Rdotaccent">
          -99 callgsubr
          738 1628 -98 callgsubr
          endchar
        </CharString>
        <CharString name="Rdotbelow">
          -99 callgsubr
          411 7 callgsubr
        </CharString>
        <CharString name="Rdotbelowmacron">
          -99 callgsubr
          411 -2 callgsubr
          648 2143 -43 callsubr
          endchar
        </CharString>
        <CharString name="Rhogreek">
          -72 callsubr
          endchar
        </CharString>
        <CharString name="Rinvertedbreve">
          -99 callgsubr
          779 1920 rmoveto
          -206 -161 16 callsubr
          -206 hhcurveto
          endchar
        </CharString>
        <CharString name="Rlinebelow">
          -99 callgsubr
          736 -401 59 callsubr
        </CharString>
        <CharString name="S">
          -103 callgsubr
          endchar
        </CharString>
        <CharString name="Sacute">
          -103 callgsubr
          358 1192 -54 callgsubr
          -239 hlineto
          endchar
        </CharString>
        <CharString name="Sacutedotaccent">
          -103 callgsubr
          555 1192 -54 callgsubr
          -240 hlineto
          -492 -246 rmoveto
          74 62 63 119 callgsubr
          -74 -73 -62 -62 -76 -75 62 -63 73 hvcurveto
          endchar
        </CharString>
        <CharString name="Scaron">
          -103 callgsubr
          411 1188 -48 callgsubr
        </CharString>
        <CharString name="Scarondotaccent">
          -103 callgsubr
          524 1461 rmoveto
          72 54 54 70 71 -54 53 -72 -73 -54 -53 -71 -70 54 -54 73 hvcurveto
          62 -301 rmoveto
          322 245 104 callsubr
          -190 -146 rlineto
          -15 hlineto
          -139 146 171 callsubr
          238 -245 rlineto
          endchar
        </CharString>
        <CharString name="Scedilla">
          1294 1047 rmoveto
          1 8 2 19 13 vvcurveto
          226 -1 -197 160 -278 hhcurveto
          -295 -202 -173 -252 -182 103 -120 235 -86 hvcurveto
          104 -37 rlineto
          179 -66 64 -63 -107 vvcurveto
          -138 -124 -98 -178 -186 -132 100 140 9 1 7 1 11 vhcurveto
          -203 hlineto
          -2 -10 -1 -14 -22 vvcurveto
          -193 153 -151 224 -44 vhcurveto
          -63 -119 -22 callgsubr
          98 rlineto
          5 hlineto
          315 204 177 272 178 -98 111 -245 90 hvcurveto
          -112 41 rlineto
          -165 60 -63 66 105 vvcurveto
          131 116 91 167 157 113 -94 -128 -16 0 -4 -1 -3 vhcurveto
          endchar
        </CharString>
        <CharString name="Scircumflex">
          -103 callgsubr
          662 1507 -11 callgsubr
        </CharString>
        <CharString name="Scommaaccent">
          -103 callgsubr
          178 -934 -35 callsubr
        </CharString>
        <CharString name="Sdotaccent">
          -103 callgsubr
          535 1210 -98 callgsubr
          endchar
        </CharString>
        <CharString name="Sdotbelow">
          -103 callgsubr
          181 -876 -98 callgsubr
          endchar
        </CharString>
        <CharString name="Sdotbelowdotaccent">
          -103 callgsubr
          181 -876 -98 callgsubr
          354 2086 -98 callgsubr
          endchar
        </CharString>
        <CharString name="Shacyrillic">
          1193 hmoveto
          -56 callgsubr
          -171 hlineto
          -224 -1265 rlineto
          -303 hlineto
          223 1265 rlineto
          -170 hlineto
          -224 -1265 rlineto
          -304 hlineto
          224 1265 rlineto
          -171 72 callgsubr
        </CharString>
        <CharString name="Shchacyrillic">
          1068 -285 rmoveto
          167 hlineto
          80 463 rlineto
          -150 hlineto
          224 1265 rlineto
          -171 hlineto
          -224 -1269 rlineto
          -288 hlineto
          224 1269 rlineto
          -171 hlineto
          -224 -1269 rlineto
          -288 hlineto
          224 1269 rlineto
          -171 -96 callgsubr
          1072 hlineto
          endchar
        </CharString>
        <CharString name="Sigmagreek">
          136 hmoveto
          954 92 callgsubr
          -686 hlineto
          2 13 420 500 6 30 -238 516 3 14 rlineto
          666 92 callgsubr
          -916 hlineto
          -26 -156 255 -559 -477 -579 rlineto
          endchar
        </CharString>
        <CharString name="Softsigncyrillic">
          508 742 rmoveto
          305 hlineto
          145 85 -84 -146 -212 -121 -120 -214 hvcurveto
          -300 hlineto
          305 -180 rmoveto
          341 200 197 331 238 -152 154 -232 hvcurveto
          -332 217 callgsubr
          -209 72 callgsubr
        </CharString>
        <CharString name="T">
          737 hmoveto
          -60 callgsubr
          endchar
        </CharString>
        <CharString name="Taugreek">
          737 hmoveto
          -60 callgsubr
          endchar
        </CharString>
        <CharString name="Tbar">
          1389 1258 rmoveto
          100 callsubr
          -1066 hlineto
          -31 -185 rlineto
          429 hlineto
          -82 -464 rlineto
          -295 hlineto
          -27 -159 118 callsubr
          -113 -635 rlineto
          208 hlineto
          113 635 118 callsubr
          27 159 rlineto
          -293 hlineto
          82 464 rlineto
          endchar
        </CharString>
        <CharString name="Tcaron">
          737 hmoveto
          -60 callgsubr
          293 1606 -48 callgsubr
        </CharString>
        <CharString name="Tcedilla">
          583 -1 rmoveto
          -37 -126 -18 -100 rlineto
          41 hlineto
          88 43 -24 -47 -44 -41 -24 -73 -38 -65 9 11 -30 57 callsubr
          49 hhcurveto
          158 103 80 125 83 -56 57 -94 13 hvcurveto
          38 128 -60 callgsubr
          endchar
        </CharString>
        <CharString name="Tcircumflexbelow">
          737 hmoveto
          -60 callgsubr
          -39 -164 -70 callgsubr
        </CharString>
        <CharString name="Tcommaaccent">
          737 hmoveto
          -60 callgsubr
          43 -503 -35 callsubr
        </CharString>
        <CharString name="Tdotaccent">
          737 hmoveto
          -60 callgsubr
          417 1628 -98 callgsubr
          endchar
        </CharString>
        <CharString name="Tdotbelow">
          737 hmoveto
          -60 callgsubr
          46 -458 -98 callgsubr
          endchar
        </CharString>
        <CharString name="Tecyrillic">
          737 hmoveto
          -60 callgsubr
          endchar
        </CharString>
        <CharString name="Thetagreek">
          514 631 rmoveto
          460 hlineto
          31 181 rlineto
          -461 hlineto
          721 -283 rmoveto
          68 callgsubr
          11 68 4 54 71 53 callsubr
          -53 -4 -61 -94 vvcurveto
          -303 201 -209 291 310 201 -4 callsubr
          64 vhcurveto
          -563 -369 rmoveto
          -193 -111 132 209 58 4 47 10 60 hvcurveto
          40 222 rlineto
          261 46 120 134 198 hhcurveto
          192 116 -134 -201 -46 -6 -61 -8 -45 hvcurveto
          -41 -229 rlineto
          -266 -46 -125 -141 -196 hhcurveto
          endchar
        </CharString>
        <CharString name="Thorn">
          437 1443 114 callsubr
          216 hlineto
          58 326 rlineto
          313 hlineto
          302 187 165 286 22 hvcurveto
          251 21 -151 158 -259 hhcurveto
          -286 hlineto
          46 257 rlineto
          -77 -444 rmoveto
          260 hlineto
          169 80 -77 -152 -16 hvcurveto
          -165 -14 -109 -91 -184 hhcurveto
          -272 hlineto
          endchar
        </CharString>
        <CharString name="Tlinebelow">
          737 hmoveto
          -60 callgsubr
          371 -401 -28 callsubr
          endchar
        </CharString>
        <CharString name="Tsecyrillic">
          1296 185 rmoveto
          -153 176 callsubr
          -209 hlineto
          -222 161 callgsubr
          -593 hlineto
          222 1258 rlineto
          -208 -96 callgsubr
          972 hlineto
          153 callsubr
          191 hlineto
          endchar
        </CharString>
        <CharString name="Tshecyrillic">
          527 hmoveto
          108 607 rlineto
          60 63 101 43 91 hhcurveto
          127 71 -76 -137 -30 -3 -33 -6 -36 hvcurveto
          -70 -398 rlineto
          202 hlineto
          72 413 rlineto
          9 50 5 48 43 vvcurveto
          220 -119 122 -214 -102 -113 -41 -64 -74 vhcurveto
          -9 hlineto
          85 467 rlineto
          346 92 callgsubr
          -874 hlineto
          -31 -185 rlineto
          326 hlineto
          -223 161 callgsubr
          endchar
        </CharString>
        <CharString name="U">
          218 555 -32 callsubr
        </CharString>
        <CharString name="Uacute">
          218 555 -104 callsubr
          399 167 -54 callgsubr
          -240 hlineto
          endchar
        </CharString>
        <CharString name="Ubreve">
          218 555 -104 callsubr
          553 161 rmoveto
          206 160 126 190 34 225 callsubr
          -109 -21 -96 -76 -116 hhcurveto
          -117 75 callgsubr
        </CharString>
        <CharString name="Ucaron">
          218 555 -104 callsubr
          451 163 rmoveto
          188 hlineto
          340 -19 callgsubr
          endchar
        </CharString>
        <CharString name="Ucircumflex">
          218 555 -104 callsubr
          702 482 33 callsubr
        </CharString>
        <CharString name="Ucircumflexbelow">
          218 555 -104 callsubr
          135 -1607 -70 callgsubr
        </CharString>
        <CharString name="Ucyrillic">
          1468 1443 -73 callgsubr
          endchar
        </CharString>
        <CharString name="Udblgrave">
          1007 1917 46 callgsubr
          -584 307 140 callsubr
          181 hlineto
          -592 -1055 -32 callsubr
        </CharString>
        <CharString name="Udieresis">
          218 555 -104 callsubr
          363 200 -64 callsubr
          421 hmoveto
          -94 callsubr
          endchar
        </CharString>
        <CharString name="Udieresisacute">
          218 555 -104 callsubr
          443 433 rmoveto
          195 hlineto
          265 229 rlineto
          -225 hlineto
          -327 -540 74 callsubr
          endchar
        </CharString>
        <CharString name="Udieresisbelow">
          218 555 -104 callsubr
          9 -1892 -57 callsubr
        </CharString>
        <CharString name="Udieresiscaron">
          218 555 -104 callsubr
          666 423 11 callgsubr
        </CharString>
        <CharString name="Udieresisgrave">
          727 1565 74 callsubr
          -241 540 rmoveto
          -220 hlineto
          186 -229 119 callsubr
          -832 -1321 -32 callsubr
        </CharString>
        <CharString name="Udieresismacron">
          218 555 -104 callsubr
          762 362 rmoveto
          88 callgsubr
          64 53 53 67 67 -53 53 -64 hvcurveto
          184 269 rmoveto
          -683 hlineto
          -23 -133 rlineto
          683 hlineto
          -570 -136 rmoveto
          -64 -53 -53 -67 -67 53 -53 64 88 callsubr
          hvcurveto
          endchar
        </CharString>
        <CharString name="Udotbelow">
          218 555 -104 callsubr
          220 -1901 -98 callgsubr
          endchar
        </CharString>
        <CharString name="Ugrave">
          814 -8 callgsubr
          -800 -1055 -32 callsubr
        </CharString>
        <CharString name="Uhookabove">
          218 555 -104 callsubr
          396 377 rmoveto
          13 26 45 9 43 hhcurveto
          63 37 -28 -44 -42 -42 -45 -68 2 callgsubr
          -53 -10 -15 -37 vhcurveto
          endchar
        </CharString>
        <CharString name="Uhorn">
          687 -30 -7 callgsubr
        </CharString>
        <CharString name="Uhornacute">
          687 -30 rmoveto
          279 197 176 297 53 hvcurveto
          151 855 rlineto
          -81 callsubr
          vhcurveto
          54 1640 103 callgsubr
          endchar
        </CharString>
        <CharString name="Uhorndotbelow">
          574 -2 callgsubr
          113 428 -7 callgsubr
        </CharString>
        <CharString name="Uhorngrave">
          1367 1298 rmoveto
          -81 callsubr
          279 197 176 297 53 vhcurveto
          -365 1474 rmoveto
          -224 73 callsubr
          199 hlineto
          endchar
        </CharString>
        <CharString name="Uhornhookabove">
          772 1820 rmoveto
          13 26 45 9 44 hhcurveto
          62 38 -28 -44 -42 -42 13 callsubr
          -94 -1973 -7 callgsubr
        </CharString>
        <CharString name="Uhorntilde">
          687 -30 rmoveto
          279 197 176 297 53 hvcurveto
          151 855 rlineto
          -81 callsubr
          vhcurveto
          99 1796 rmoveto
          97 29 10 callgsubr
          10 hvcurveto
          -138 hlineto
          -92 -8 -35 -50 -54 114 callgsubr
          -90 -108 -171 -11 hvcurveto
          138 hlineto
          95 8 34 49 56 hhcurveto
          endchar
        </CharString>
        <CharString name="Uhungarumlaut">
          218 555 -104 callsubr
          624 167 rmoveto
          191 142 callsubr
          -210 hlineto
          -692 -307 rmoveto
          192 71 callsubr
          endchar
        </CharString>
        <CharString name="Uinvertedbreve">
          218 555 -104 callsubr
          589 477 83 callsubr
          115 hhcurveto
          118 16 callgsubr
          -207 hhcurveto
          endchar
        </CharString>
        <CharString name="Umacron">
          218 555 -104 callsubr
          884 242 -43 callsubr
          endchar
        </CharString>
        <CharString name="Umacrondieresis">
          218 555 -104 callsubr
          381 439 27 callgsubr
        </CharString>
        <CharString name="Uogonek">
          878 -431 rmoveto
          46 31 4 10 30 hvcurveto
          23 131 rlineto
          -3 -11 -27 -2 -27 hhcurveto
          -75 -49 39 59 78 43 56 154 122 hvcurveto
          115 89 69 124 32 176 175 991 rcurveline
          -206 hlineto
          -172 -963 rlineto
          -196 -35 -127 -123 -166 hhcurveto
          -173 -113 116 175 32 5 41 6 29 hvcurveto
          157 889 -16 callgsubr
          -157 -888 rlineto
          -8 -36 -3 -35 -50 vvcurveto
          -280 194 -184 291 4 vhcurveto
          35 36 8 13 25 hvcurveto
          -2 -14 rlineto
          -97 -64 -49 -72 -86 vvcurveto
          -110 101 -80 137 vhcurveto
          endchar
        </CharString>
        <CharString name="Upsilondieresisgreek">
          -80 callgsubr
          191 70 callsubr
          -51 callgsubr
          -59 68 hvcurveto
          421 hmoveto
          -94 callsubr
          endchar
        </CharString>
        <CharString name="Upsilongreek">
          -80 callgsubr
          endchar
        </CharString>
        <CharString name="Upsilontonosgreek">
          905 hmoveto
          103 580 500 863 rlineto
          -223 hlineto
          -332 -648 rlineto
          -14 hlineto
          -111 648 220 callgsubr
          192 -863 -103 -580 rlineto
          -504 1089 -24 callsubr
        </CharString>
        <CharString name="Uring">
          218 555 -104 callsubr
          545 114 50 callsubr
        </CharString>
        <CharString name="Ushortcyrillic">
          1468 1443 -73 callgsubr
          271 1545 -5 callgsubr
          129 191 26 hvcurveto
          endchar
        </CharString>
        <CharString name="Utilde">
          218 555 -104 callsubr
          413 323 -37 callgsubr
        </CharString>
        <CharString name="Utildeacute">
          218 555 -104 callsubr
          455 462 rmoveto
          175 hlineto
          163 224 193 callsubr
          -198 -436 68 callsubr
          139 hlineto
          79 7 33 41 53 hhcurveto
          endchar
        </CharString>
        <CharString name="Utildebelow">
          218 555 -104 callsubr
          77 -1754 -37 callsubr
        </CharString>
        <CharString name="V">
          19 callsubr
          endchar
        </CharString>
        <CharString name="Vdotbelow">
          19 callsubr
          -672 -1901 -85 callsubr
        </CharString>
        <CharString name="Vecyrillic">
          -89 callgsubr
          endchar
        </CharString>
        <CharString name="Vtilde">
          19 callsubr
          -465 323 -37 callgsubr
        </CharString>
        <CharString name="W">
          800 883 -84 callgsubr
          endchar
        </CharString>
        <CharString name="Wacute">
          800 883 -84 callgsubr
          -19 727 -54 callgsubr
          -239 hlineto
          endchar
        </CharString>
        <CharString name="Wcircumflex">
          800 883 -84 callgsubr
          285 1042 -11 callgsubr
        </CharString>
        <CharString name="Wdieresis">
          800 883 -84 callgsubr
          -55 760 rmoveto
          -57 callgsubr
          -17 callgsubr
          -48 callsubr
        </CharString>
        <CharString name="Wdotaccent">
          800 883 -84 callgsubr
          158 745 -98 callgsubr
          endchar
        </CharString>
        <CharString name="Wdotbelow">
          800 883 -84 callgsubr
          -212 -1341 -85 callsubr
        </CharString>
        <CharString name="Wgrave">
          789 -8 callgsubr
          -193 -727 -84 callgsubr
          endchar
        </CharString>
        <CharString name="X">
          -53 callgsubr
          endchar
        </CharString>
        <CharString name="Xacyrillic">
          -53 callgsubr
          endchar
        </CharString>
        <CharString name="Xdieresis">
          -53 callgsubr
          101 916 -67 callsubr
          endchar
        </CharString>
        <CharString name="Xdotaccent">
          -53 callgsubr
          313 901 -85 callsubr
        </CharString>
        <CharString name="Xigreek">
          155 hmoveto
          956 hlineto
          33 190 rlineto
          -956 hlineto
          161 447 rmoveto
          795 hlineto
          32 189 rlineto
          -795 hlineto
          -4 427 rmoveto
          956 hlineto
          32 190 rlineto
          -956 hlineto
          endchar
        </CharString>
        <CharString name="Y">
          -80 callgsubr
          endchar
        </CharString>
        <CharString name="Yacute">
          -80 callgsubr
          227 1610 -54 callgsubr
          -240 hlineto
          endchar
        </CharString>
        <CharString name="Ycircumflex">
          -80 callgsubr
          530 1925 33 callsubr
        </CharString>
        <CharString name="Ydieresis">
          -80 callgsubr
          191 70 callsubr
          -51 callgsubr
          -59 68 hvcurveto
          421 hmoveto
          -94 callsubr
          endchar
        </CharString>
        <CharString name="Ydotaccent">
          -80 callgsubr
          404 1628 -98 callgsubr
          endchar
        </CharString>
        <CharString name="Ydotbelow">
          -80 callgsubr
          45 -458 -98 callgsubr
          endchar
        </CharString>
        <CharString name="Yericyrillic">
          411 742 rmoveto
          119 hlineto
          133 79 -84 -142 -209 -120 -61 callgsubr
        </CharString>
        <CharString name="Ygrave">
          776 111 callgsubr
          -244 -1610 rmoveto
          103 581 635 862 rlineto
          -237 hlineto
          -467 -650 rlineto
          -14 hlineto
          -246 650 104 callsubr
          340 -863 -103 -580 rlineto
          endchar
        </CharString>
        <CharString name="Yhookabove">
          -80 callgsubr
          224 1820 5 callgsubr
        </CharString>
        <CharString name="Yicyrillic">
          1031 hmoveto
          -99 callsubr
          498 61 callsubr
          -17 callgsubr
          -48 callsubr
        </CharString>
        <CharString name="Ymacron">
          -80 callgsubr
          725 1685 -64 callgsubr
          endchar
        </CharString>
        <CharString name="Ytilde">
          -80 callgsubr
          241 1766 -37 callgsubr
        </CharString>
        <CharString name="Z">
          -65 callsubr
          endchar
        </CharString>
        <CharString name="Zacute">
          -65 callsubr
          607 1457 -54 callgsubr
          -239 hlineto
          endchar
        </CharString>
        <CharString name="Zcaron">
          -65 callsubr
          660 1453 -48 callgsubr
        </CharString>
        <CharString name="Zcircumflex">
          -65 callsubr
          911 1772 rmoveto
          -189 81 callgsubr
          210 hlineto
          207 198 rlineto
          15 hlineto
          136 148 callgsubr
        </CharString>
        <CharString name="Zdotaccent">
          -65 callsubr
          784 1475 -98 callgsubr
          endchar
        </CharString>
        <CharString name="Zdotbelow">
          -65 callsubr
          415 -611 -85 callsubr
        </CharString>
        <CharString name="Zecyrillic">
          -63 callgsubr
          endchar
        </CharString>
        <CharString name="Zetagreek">
          -65 callsubr
          endchar
        </CharString>
        <CharString name="Zhecyrillic">
          -44 callgsubr
          endchar
        </CharString>
        <CharString name="Zlinebelow">
          -65 callsubr
          740 -554 -64 callgsubr
          endchar
        </CharString>
        <CharString name="a">
          -107 callgsubr
          endchar
        </CharString>
        <CharString name="aacute">
          939 -50 callgsubr
          -300 -343 rlineto
          207 -790 -88 callsubr
        </CharString>
        <CharString name="abreve">
          -107 callgsubr
          253 1094 rmoveto
          216 -12 callsubr
          212 hhcurveto
          endchar
        </CharString>
        <CharString name="abreveacute">
          -107 callgsubr
          185 1508 rmoveto
          165 hlineto
          288 316 193 callsubr
          -185 -715 -25 callgsubr
          endchar
        </CharString>
        <CharString name="abrevedotbelow">
          -107 callgsubr
          253 1094 rmoveto
          216 -12 callsubr
          212 hhcurveto
          -312 -1702 -85 callsubr
        </CharString>
        <CharString name="abrevegrave">
          1122 1595 rmoveto
          31 callsubr
          167 callgsubr
          -428 379 rmoveto
          -195 hlineto
          178 -316 rlineto
          160 hlineto
          -61 -1152 -88 callsubr
        </CharString>
        <CharString name="abrevehookabove">
          -107 callgsubr
          253 1109 rmoveto
          167 callgsubr
          -159 hlineto
          31 callsubr
          -151 595 rmoveto
          16 33 38 9 39 hhcurveto
          61 39 -29 -44 -47 -39 -41 -68 -21 52 callsubr
        </CharString>
        <CharString name="abrevetilde">
          -107 callgsubr
          253 1109 rmoveto
          167 callgsubr
          -159 hlineto
          31 callsubr
          -58 589 rmoveto
          85 -36 callgsubr
          153 hlineto
          106 5 27 46 58 hhcurveto
          endchar
        </CharString>
        <CharString name="acaron">
          -107 callgsubr
          347 1146 -77 callsubr
          endchar
        </CharString>
        <CharString name="acircumflex">
          -107 callgsubr
          184 1475 -100 callsubr
          endchar
        </CharString>
        <CharString name="acircumflexacute">
          -107 callgsubr
          504 1508 rmoveto
          184 hlineto
          288 316 225 callgsubr
          -577 -346 -100 callsubr
          endchar
        </CharString>
        <CharString name="acircumflexdotbelow">
          -107 callgsubr
          184 1475 -100 callsubr
          -469 -2083 -85 callsubr
        </CharString>
        <CharString name="acircumflexgrave">
          -107 callgsubr
          774 1508 rmoveto
          -147 316 171 callsubr
          177 -316 rlineto
          -414 -30 -100 callsubr
          endchar
        </CharString>
        <CharString name="acircumflexhookabove">
          -107 callgsubr
          185 1478 -100 callsubr
          4 226 rmoveto
          16 33 187 callgsubr
          68 -100 rlineto
          118 40 71 85 100 vvcurveto
          111 -85 73 -127 -50 -51 -10 -17 -37 vhcurveto
          endchar
        </CharString>
        <CharString name="acircumflextilde">
          -107 callgsubr
          196 1715 rmoveto
          85 39 -147 160 hhcurveto
          137 96 113 173 9 hvcurveto
          -153 hlineto
          -101 -7 -26 -41 -54 -86 -39 145 -160 hhcurveto
          -139 -94 -111 -177 -9 hvcurveto
          152 hlineto
          103 8 26 43 55 hhcurveto
          -11 -237 -100 callsubr
          endchar
        </CharString>
        <CharString name="acute">
          833 55 callgsubr
          endchar
        </CharString>
        <CharString name="acutecmb">
          867 -50 callgsubr
          -300 -343 rlineto
          endchar
        </CharString>
        <CharString name="acutecmb.short">
          762 1610 -54 callgsubr
          -239 hlineto
          endchar
        </CharString>
        <CharString name="acutedotaccentcmb">
          695 1332 -98 callgsubr
          400 -39 80 callgsubr
          endchar
        </CharString>
        <CharString name="acutedotaccentcmb.short">
          967 1610 103 callgsubr
          -492 -246 rmoveto
          73 62 63 119 callgsubr
          -73 -74 -62 -62 -76 -75 62 -63 74 hvcurveto
          endchar
        </CharString>
        <CharString name="acyrillic">
          -107 callgsubr
          endchar
        </CharString>
        <CharString name="adblgrave">
          970 35 callsubr
          181 hlineto
          199 -790 -88 callsubr
        </CharString>
        <CharString name="adieresis">
          -107 callgsubr
          54 1146 -38 callsubr
        </CharString>
        <CharString name="adieresismacron">
          -107 callgsubr
          473 1410 31 callgsubr
          158 callgsubr
          hvcurveto
          -52 318 158 callsubr
          27 151 rlineto
          endchar
        </CharString>
        <CharString name="adotaccent">
          -107 callgsubr
          263 1145 -23 callsubr
        </CharString>
        <CharString name="adotbelow">
          -107 callgsubr
          -59 -608 -85 callsubr
        </CharString>
        <CharString name="adotmacron">
          -107 callgsubr
          654 1578 -28 callsubr
          285 -445 -98 callgsubr
          endchar
        </CharString>
        <CharString name="ae">
          -81 callgsubr
          endchar
        </CharString>
        <CharString name="aeacute">
          917 1296 80 callgsubr
          -78 -804 rmoveto
          -19 -108 rlineto
          -133 -22 -83 -94 -97 hhcurveto
          -75 -54 58 81 100 75 75 108 8 hvcurveto
          359 160 rmoveto
          1 4 9 48 3 vvcurveto
          152 30 76 92 97 hhcurveto
          89 57 -73 -116 -33 -4 -36 -6 -41 hvcurveto
          -53 -332 rmoveto
          -90 -19 -72 -61 -83 hhcurveto
          -97 -63 83 129 48 1 20 11 54 hvcurveto
          515 hlineto
          3 17 9 61 2 13 rrcurveto
          8 51 5 44 24 vvcurveto
          242 18 -111 165 -183 hhcurveto
          -111 -104 -62 -100 -57 hvcurveto
          -4 hlineto
          107 -36 -81 55 -120 hhcurveto
          -170 -133 -126 -184 -28 hvcurveto
          163 hlineto
          86 19 61 54 77 hhcurveto
          85 50 -59 -96 -23 -2 -20 -4 -25 hvcurveto
          -13 -76 -186 -14 rlineto
          -224 -17 -132 -134 -208 vvcurveto
          -162 110 -119 150 135 115 83 136 53 vhcurveto
          5 hlineto
          -136 22 99 -83 135 hhcurveto
          167 142 131 192 34 hvcurveto
          endchar
        </CharString>
        <CharString name="aemacron">
          -81 callgsubr
          786 1209 -64 callgsubr
          endchar
        </CharString>
        <CharString name="agrave">
          -107 callgsubr
          374 1146 14 callsubr
          endchar
        </CharString>
        <CharString name="ahookabove">
          -107 callgsubr
          89 1345 66 callgsubr
        </CharString>
        <CharString name="ainvertedbreve">
          -107 callgsubr
          278 1445 36 callgsubr
          -15 hvcurveto
          156 99 callgsubr
        </CharString>
        <CharString name="alphagreek">
          -46 callgsubr
          endchar
        </CharString>
        <CharString name="alphatonosgreek">
          -46 callgsubr
          -17 351 -24 callsubr
        </CharString>
        <CharString name="amacron">
          -107 callgsubr
          590 1216 -43 callsubr
          endchar
        </CharString>
        <CharString name="ampersand">
          540 661 rmoveto
          43 23 263 -432 -91 -77 -111 -39 -107 6 rlinecurve
          -149 7 -91 102 17 141 12 111 71 85 143 73 rrcurveto
          449 -661 rmoveto
          226 hlineto
          -160 240 95 113 64 154 28 180 rlinecurve
          6 44 rlineto
          -169 hlineto
          -2 -20 -26 -154 -30 -86 -55 -73 rlinecurve
          -228 379 223 117 94 111 18 152 rlinecurve
          22 178 -117 129 -192 8 -199 8 -158 -130 -22 -192 -12 -99 33 -111 82 -130 -55 -29 rcurveline
          -201 -104 -111 -140 -16 -165 -25 -230 153 -164 250 -12 149 -7 150 51 118 98 rrcurveto
          -21 1033 rmoveto
          -14 -99 -61 -69 -162 -88 -71 113 -26 75 11 75 13 94 81 69 94 -5 91 -4 57 -70 -13 -91 rrcurveto
          endchar
        </CharString>
        <CharString name="anoteleia">
          788 773 rmoveto
          93 64 67 91 90 -64 69 -93 -93 -64 -69 -90 -91 64 -67 93 hvcurveto
          endchar
        </CharString>
        <CharString name="aogonek">
          627 150 rmoveto
          -120 -76 65 101 hvcurveto
          1 118 97 68 172 2 238 2 rcurveline
          -22 -115 rlineto
          -136 -24 -128 -105 -138 hhcurveto
          244 -120 rmoveto
          -169 -89 -53 -65 -109 vvcurveto
          -116 97 -85 133 41 29 3 10 25 vhcurveto
          23 130 rlineto
          -4 -16 -8 -1 -21 hhcurveto
          -74 -49 41 62 81 65 57 155 55 hvcurveto
          112 638 rlineto
          16 78 3 28 51 vvcurveto
          187 -155 123 -234 -229 -186 -125 -177 -34 vhcurveto
          199 hlineto
          82 28 94 55 110 hhcurveto
          126 80 -66 -101 -23 -2 -19 -4 -24 hvcurveto
          -10 -58 -266 -3 -306 -4 -167 -127 2 -228 rlinecurve
          -179 2 134 -126 193 hhcurveto
          130 134 72 99 52 hvcurveto
          21 hlineto
          endchar
        </CharString>
        <CharString name="approxequal">
          591 755 rmoveto
          38 30 -20 -68 71 hvcurveto
          -71 73 65 -32 74 hhcurveto
          168 101 125 209 225 callsubr
          -103 -4 -39 -51 -74 hhcurveto
          -37 -31 19 67 -70 hvcurveto
          72 -76 -64 31 -72 hhcurveto
          -169 -100 -123 -211 1 hvcurveto
          157 hlineto
          105 6 39 51 71 hhcurveto
          -80 -455 rmoveto
          39 33 -21 -67 67 hvcurveto
          -71 73 66 -32 73 hhcurveto
          168 101 126 209 225 callsubr
          -103 -4 -40 -52 -73 hhcurveto
          -37 -28 17 69 -73 hvcurveto
          73 -76 -63 30 -73 hhcurveto
          -168 -101 -123 -210 1 hvcurveto
          157 hlineto
          104 6 38 51 72 hhcurveto
          endchar
        </CharString>
        <CharString name="aring">
          -107 callgsubr
          272 1216 rmoveto
          -65 -49 50 66 66 49 50 65 18 callgsubr
          -127 -103 -105 -129 -129 103 -105 127 hvcurveto
          endchar
        </CharString>
        <CharString name="aringacute">
          1023 86 callsubr
          -117 -90 -88 -115 -116 90 -88 117 hvcurveto
          102 vmoveto
          -58 -44 44 58 57 44 44 58 58 43 -44 -57 -58 -43 -44 -58 hvcurveto
          45 -824 -88 callsubr
        </CharString>
        <CharString name="aringbelow">
          -107 callgsubr
          -61 -627 rmoveto
          -64 -49 51 65 66 49 51 64 65 49 -51 -66 -65 -49 -51 -65 hvcurveto
          -117 vmoveto
          127 103 105 128 129 -103 105 -127 -126 -103 -105 -129 -128 103 -105 126 hvcurveto
          endchar
        </CharString>
        <CharString name="asciicircum">
          851 1235 rmoveto
          18 hlineto
          129 -554 rlineto
          195 hlineto
          -202 762 -16 callgsubr
          -467 -762 rlineto
          210 hlineto
          endchar
        </CharString>
        <CharString name="asciitilde">
          547 921 rmoveto
          -175 -115 -136 -208 hvcurveto
          -8 1 -14 -8 vvcurveto
          179 hlineto
          119 6 44 59 80 hhcurveto
          43 38 -23 -70 67 hvcurveto
          -91 89 72 -35 96 hhcurveto
          175 113 136 208 hvcurveto
          7 -1 14 9 vvcurveto
          -177 hlineto
          -117 -6 -43 -62 -75 hhcurveto
          -48 -39 24 69 -67 hvcurveto
          92 -90 -71 35 -96 hhcurveto
          endchar
        </CharString>
        <CharString name="asterisk">
          1323 757 rmoveto
          -56 160 -433 -172 94 453 -162 30 -67 -462 -348 313 -105 -131 361 -286 -439 -145 56 -160 433 173 -94 -454 162 -30 67 460 348 -310 106 131 -363 285 rlineto
          endchar
        </CharString>
        <CharString name="at">
          679 -203 rmoveto
          83 81 10 16 38 hvcurveto
          22 127 rlineto
          -15 -45 -77 -10 -72 hhcurveto
          -265 -125 134 285 77 8 86 17 93 hvcurveto
          26 143 rlineto
          419 74 147 185 255 hhcurveto
          234 126 -128 -239 -58 -6 -61 -12 -67 hvcurveto
          -44 -245 rlineto
          -92 -17 -44 -37 -92 hhcurveto
          -138 hlineto
          70 398 rlineto
          2 12 1 17 8 vvcurveto
          69 -39 41 -68 -68 -49 -48 -82 -14 vhcurveto
          -67 -390 rlineto
          -2 -9 -2 -18 -11 vvcurveto
          -68 39 -41 63 vhcurveto
          278 hlineto
          165 82 74 184 33 hvcurveto
          46 255 rlineto
          11 66 6 64 61 vvcurveto
          306 -172 169 -307 -329 -213 -244 -475 -82 vhcurveto
          -32 -171 rlineto
          -17 -109 -8 -84 -66 vvcurveto
          -353 167 -178 332 vhcurveto
          endchar
        </CharString>
        <CharString name="atilde">
          -107 callgsubr
          115 1272 rmoveto
          86 40 -157 161 hhcurveto
          139 94 -20 callsubr
          -142 -90 141 callgsubr
          106 134 callsubr
        </CharString>
        <CharString name="austral">
          846 1212 rmoveto
          8 hlineto
          48 -399 rlineto
          -247 hlineto
          281 -293 rmoveto
          -419 hlineto
          84 177 rlineto
          314 hlineto
          82 -697 rmoveto
          214 hlineto
          -58 392 rlineto
          118 hlineto
          22 128 rlineto
          -158 hlineto
          -25 171 rlineto
          213 hlineto
          23 128 rlineto
          -253 hlineto
          -90 624 rlineto
          -232 hlineto
          -309 -624 rlineto
          -253 hlineto
          -23 -128 rlineto
          215 hlineto
          -87 -171 rlineto
          -158 hlineto
          -22 -128 rlineto
          119 hlineto
          -198 -392 rlineto
          217 hlineto
          188 392 rlineto
          489 hlineto
          endchar
        </CharString>
        <CharString name="b">
          -79 callgsubr
          endchar
        </CharString>
        <CharString name="backslash">
          1053 -160 rmoveto
          -388 1763 171 callgsubr
          390 -1763 rlineto
          endchar
        </CharString>
        <CharString name="baht">
          886 1269 rmoveto
          119 -16 62 -66 -111 vvcurveto
          -1 -135 -103 -97 -155 -14 rrcurveto
          -29 -166 rmoveto
          162 -11 87 -79 -133 vvcurveto
          -163 -132 -104 -204 -2 vhcurveto
          -293 hmoveto
          88 493 rlineto
          174 hlineto
          -87 -493 rlineto
          21 1101 rmoveto
          173 hlineto
          -78 -445 rlineto
          -175 hlineto
          428 766 rmoveto
          -118 hlineto
          -27 -151 rlineto
          -380 -96 callgsubr
          380 hlineto
          -26 -145 rlineto
          118 hlineto
          26 145 rlineto
          48 hlineto
          322 208 165 255 2 hvcurveto
          1 168 -104 127 -160 29 2 13 rcurveline
          179 35 122 143 2 177 1 195 -137 123 -232 12 rrcurveto
          endchar
        </CharString>
        <CharString name="bar">
          643 -483 rmoveto
          367 2086 rlineto
          -191 hlineto
          -366 -2086 rlineto
          endchar
        </CharString>
        <CharString name="bdotaccent">
          -79 callgsubr
          310 1135 -23 callsubr
        </CharString>
        <CharString name="bdotbelow">
          -79 callgsubr
          -145 -618 -85 callsubr
        </CharString>
        <CharString name="becyrillic">
          710 155 rmoveto
          -165 -108 122 187 53 5 46 12 46 hvcurveto
          179 42 116 112 152 hhcurveto
          167 106 -112 -170 -67 -3 -26 -10 -51 hvcurveto
          -201 -41 -117 -118 -156 hhcurveto
          -252 705 rmoveto
          93 315 131 116 263 1 204 2 109 13 70 31 30 178 rcurveline
          -84 -32 -138 -19 -176 -4 -392 -6 -198 -203 -106 -499 rrcurveto
          -20 -90 -10 -85 -79 vvcurveto
          -322 176 -197 286 282 193 176 309 57 vhcurveto
          14 71 3 29 61 vvcurveto
          262 -164 173 -257 -164 -124 -70 -131 -70 vhcurveto
          endchar
        </CharString>
        <CharString name="betagreek">
          118 -366 rmoveto
          192 hlineto
          102 581 rlineto
          11 hlineto
          -143 33 138 -90 173 hhcurveto
          289 166 210 269 173 -89 137 -150 39 hvcurveto
          2 12 rlineto
          167 52 97 130 189 vvcurveto
          207 -160 135 -232 -276 -155 -139 -312 -54 vhcurveto
          356 -925 rmoveto
          -154 -121 109 159 51 5 22 10 56 hvcurveto
          90 510 rlineto
          206 38 91 93 154 hhcurveto
          142 79 -76 -121 -177 -107 -89 -180 hvcurveto
          -89 hlineto
          -29 -172 rlineto
          71 hlineto
          180 117 -104 -164 -181 -114 -122 -183 hvcurveto
          endchar
        </CharString>
        <CharString name="bitcoin">
          951 760 rmoveto
          200 31 127 139 196 vvcurveto
          145 -97 103 -163 29 vhcurveto
          43 209 rlineto
          -123 hlineto
          -39 -198 rlineto
          -162 hlineto
          39 198 rlineto
          -122 hlineto
          -40 -198 rlineto
          -171 hlineto
          -280 -1388 rlineto
          172 hlineto
          -39 -198 rlineto
          122 hlineto
          39 198 rlineto
          162 hlineto
          -39 -198 rlineto
          121 hlineto
          40 199 rlineto
          281 16 193 182 239 vvcurveto
          152 -110 109 -157 20 vhcurveto
          -340 504 rmoveto
          222 hlineto
          160 79 -65 -112 -148 -125 -102 -188 hvcurveto
          -237 hlineto
          -128 -630 rmoveto
          99 475 rlineto
          249 hlineto
          177 90 -72 -128 -156 -137 -119 -195 hvcurveto
          endchar
        </CharString>
        <CharString name="blinebelow">
          -79 callgsubr
          180 -561 -64 callgsubr
          endchar
        </CharString>
        <CharString name="braceleft">
          985 -160 rmoveto
          28 164 rlineto
          -105 hlineto
          -112 -38 28 84 28 4 34 8 42 hvcurveto
          45 259 rlineto
          3 14 1 17 25 vvcurveto
          120 -100 84 -157 11 vhcurveto
          3 17 202 5 111 70 24 132 rlinecurve
          47 270 rlineto
          162 29 25 24 157 hhcurveto
          104 hlineto
          28 167 rlineto
          -143 hlineto
          -266 -85 -70 -246 -43 hvcurveto
          -39 -222 rlineto
          -149 -26 -83 -46 -240 hhcurveto
          -35 -206 rlineto
          186 91 -61 -124 -19 -2 -20 -3 -22 hvcurveto
          -38 -212 rlineto
          -8 -49 -5 -42 -35 vvcurveto
          -166 85 -68 205 vhcurveto
          endchar
        </CharString>
        <CharString name="braceright">
          528 1597 rmoveto
          -27 -164 rlineto
          104 hlineto
          113 38 -28 -84 -27 -4 -35 -8 -42 hvcurveto
          -46 -259 rlineto
          -3 -14 -1 -17 -25 vvcurveto
          -120 101 -84 156 -11 vhcurveto
          -3 -17 -202 -5 -111 -70 -23 -132 rlinecurve
          -48 -270 rlineto
          -162 -29 -25 -24 -156 hhcurveto
          -105 hlineto
          -28 -167 rlineto
          144 hlineto
          265 85 70 246 44 hvcurveto
          38 223 rlineto
          148 26 84 46 240 hhcurveto
          35 206 rlineto
          -186 -92 61 125 18 2 21 4 21 hvcurveto
          38 212 rlineto
          8 49 4 42 36 vvcurveto
          165 -84 68 -206 vhcurveto
          endchar
        </CharString>
        <CharString name="bracketleft">
          642 1603 rmoveto
          -308 -1763 rlineto
          560 hlineto
          26 160 rlineto
          -363 -50 callsubr
          360 hlineto
          27 160 rlineto
          endchar
        </CharString>
        <CharString name="bracketright">
          631 1603 rmoveto
          -28 -160 rlineto
          360 -96 callgsubr
          -363 hlineto
          -27 -160 rlineto
          560 hlineto
          308 1763 rlineto
          endchar
        </CharString>
        <CharString name="breve">
          876 1244 1 callgsubr
        </CharString>
        <CharString name="breveacutecmb">
          806 1658 rmoveto
          165 hlineto
          288 316 193 callsubr
          -185 -715 -25 callgsubr
          endchar
        </CharString>
        <CharString name="breveacutecmb.short">
          836 1876 rmoveto
          173 hlineto
          234 229 rlineto
          -202 hlineto
          -110 -525 60 callgsubr
        </CharString>
        <CharString name="brevebelowcmb">
          584 -476 rmoveto
          215 162 179 callgsubr
          -160 hlineto
          -116 -16 -92 -78 -119 hhcurveto
          -126 -75 87 callsubr
          endchar
        </CharString>
        <CharString name="brevecmb">
          876 1244 1 callgsubr
        </CharString>
        <CharString name="brevecmb.short">
          925 1604 rmoveto
          206 160 126 190 34 225 callsubr
          -109 -21 -96 -76 -115 hhcurveto
          -118 75 callgsubr
        </CharString>
        <CharString name="brevecyrillic">
          873 1259 rmoveto
          18 callsubr
          -161 hlineto
          -113 -17 -77 -66 callsubr
          endchar
        </CharString>
        <CharString name="brevecyrillic.short">
          892 45 callsubr
        </CharString>
        <CharString name="brevegravecmb">
          1117 1595 rmoveto
          -115 123 callgsubr
          115 14 hvcurveto
          -155 159 callsubr
          -152 212 hhcurveto
          103 callsubr
          201 27 hvcurveto
          -428 379 rmoveto
          -195 hlineto
          177 -316 rlineto
          161 hlineto
          endchar
        </CharString>
        <CharString name="brevegravecmb.short">
          1062 163 callsubr
          26 -296 60 callgsubr
        </CharString>
        <CharString name="brevehookabovecmb">
          876 1259 -25 callgsubr
          -152 595 rmoveto
          16 34 38 9 38 hhcurveto
          62 39 -29 -44 -47 -40 -41 -67 -21 hvcurveto
          67 40 callgsubr
          -37 vhcurveto
          endchar
        </CharString>
        <CharString name="brevehookabovecmb.short">
          789 2012 rmoveto
          11 23 44 7 37 hhcurveto
          49 30 -21 -37 -43 -38 -40 -63 -22 hvcurveto
          66 -76 rlineto
          205 callsubr
          -49 -8 -12 -36 vhcurveto
          122 -538 rmoveto
          202 149 108 165 25 hvcurveto
          -153 hlineto
          -93 -14 -84 -60 -115 hhcurveto
          -119 -72 57 96 -5 194 callsubr
          endchar
        </CharString>
        <CharString name="brevetildecmb">
          876 1259 -25 callgsubr
          -59 589 rmoveto
          86 40 -157 161 hhcurveto
          139 94 113 184 11 hvcurveto
          -153 hlineto
          -106 -5 -27 -44 -57 -86 -41 -49 callsubr
          endchar
        </CharString>
        <CharString name="brevetildecmb.short">
          927 1580 rmoveto
          122 callgsubr
          -148 hlineto
          -153 10 127 -94 195 hhcurveto
          -92 420 rmoveto
          172 callgsubr
          -136 hlineto
          154 callgsubr
          -4 hvcurveto
          142 hlineto
          59 3 39 39 55 hhcurveto
          endchar
        </CharString>
        <CharString name="brokenbar">
          866 782 rmoveto
          144 821 rlineto
          -191 hlineto
          -143 -821 rlineto
          -33 -1265 rmoveto
          144 820 rlineto
          -191 hlineto
          -143 -820 rlineto
          endchar
        </CharString>
        <CharString name="bullet">
          746 209 rmoveto
          236 193 194 237 237 -193 195 -236 -235 -194 -195 -237 -237 194 -194 235 hvcurveto
          endchar
        </CharString>
        <CharString name="c">
          1233 721 -87 callsubr
          endchar
        </CharString>
        <CharString name="cacute">
          1233 721 -87 callsubr
          -118 575 169 callsubr
        </CharString>
        <CharString name="caron">
          972 93 callgsubr
          endchar
        </CharString>
        <CharString name="caroncmb">
          970 93 callgsubr
          endchar
        </CharString>
        <CharString name="caroncmb.short">
          823 1606 rmoveto
          189 hlineto
          339 -19 callgsubr
          endchar
        </CharString>
        <CharString name="carondotaccentcmb">
          977 1283 -77 callsubr
          186 413 -85 callsubr
        </CharString>
        <CharString name="carondotaccentcmb.short">
          936 1879 rmoveto
          73 54 54 70 71 -54 53 -73 -72 -54 -53 -71 -70 54 -54 72 hvcurveto
          62 -301 rmoveto
          323 245 rlineto
          -219 hlineto
          -189 -146 rlineto
          -16 hlineto
          -139 146 rlineto
          -204 hlineto
          238 -245 rlineto
          endchar
        </CharString>
        <CharString name="ccaron">
          953 93 callgsubr
          506 -575 -87 callsubr
          endchar
        </CharString>
        <CharString name="ccedilla">
          1233 721 rmoveto
          10 1 10 7 vvcurveto
          218 -174 146 -258 -269 -191 -162 -270 -48 vhcurveto
          -9 -47 -13 -83 -4 -28 rrcurveto
          -8 -48 -3 -43 -38 vvcurveto
          -220 127 -149 211 -36 vhcurveto
          -66 -123 -52 callgsubr
          vlineto
          endchar
        </CharString>
        <CharString name="ccedillaacute">
          1247 1639 rmoveto
          48 callgsubr
          210 hlineto
          -389 -1431 rmoveto
          -52 callgsubr
          198 vlineto
          10 1 10 7 vvcurveto
          218 -174 146 -258 -269 -191 -162 -270 -48 vhcurveto
          -9 -47 -13 -83 -4 -28 rrcurveto
          -8 -48 -3 -43 -38 vvcurveto
          -220 127 -149 211 -36 vhcurveto
          endchar
        </CharString>
        <CharString name="ccircumflex">
          790 94 callsubr
          217 -904 -87 callsubr
          endchar
        </CharString>
        <CharString name="cdotaccent">
          868 137 callsubr
          365 -574 -87 callsubr
          endchar
        </CharString>
        <CharString name="cedi">
          484 892 rmoveto
          42 230 115 134 168 20 -194 -1096 rcurveline
          -121 39 -69 109 158 vvcurveto
          50 5 54 8 41 vhcurveto
          903 326 rmoveto
          4 28 2 24 22 vvcurveto
          229 -152 167 -229 38 vhcurveto
          23 129 rlineto
          -124 hlineto
          -21 -121 -311 -9 -201 -205 -64 -371 rlinecurve
          -42 -242 rlineto
          -9 -45 -5 -59 -53 vvcurveto
          -270 139 -186 229 -50 vhcurveto
          -27 -156 rlineto
          124 hlineto
          25 142 rlineto
          10 hlineto
          290 217 177 267 34 hvcurveto
          1 6 1 8 9 vvcurveto
          -211 hlineto
          -1 -3 0 -2 -4 vvcurveto
          -34 -166 -111 -94 -162 -4 196 1108 rcurveline
          126 -27 78 -95 -133 vvcurveto
          -22 -1 -15 -2 -22 vhcurveto
          endchar
        </CharString>
        <CharString name="cedilla">
          468 -228 rmoveto
          -58 callsubr
          67 128 rlineto
          -143 hlineto
          -73 -135 rlineto
          endchar
        </CharString>
        <CharString name="cedillacmb">
          487 -228 rmoveto
          113 callsubr
          -65 9 11 -28 -29 callsubr
          67 128 rlineto
          -144 hlineto
          -72 -135 rlineto
          endchar
        </CharString>
        <CharString name="cent">
          1184 488 169 callgsubr
          -94 -23 -90 -57 -124 hhcurveto
          -159 -89 95 167 30 3 41 7 38 hvcurveto
          21 117 rlineto
          171 30 108 100 151 hhcurveto
          145 81 -74 -131 1 hvcurveto
          197 hlineto
          14 192 -102 137 -186 42 32 185 rcurveline
          -191 hlineto
          -29 -169 -237 -20 -163 -151 -44 -240 rlinecurve
          -27 -145 rlineto
          -8 -53 -5 -58 -46 vvcurveto
          -195 109 -146 182 -49 vhcurveto
          -35 -192 rlineto
          191 hlineto
          31 173 218 18 155 125 33 189 rlinecurve
          endchar
        </CharString>
        <CharString name="checyrillic">
          1254 1090 -60 callsubr
          -81 -460 rlineto
          201 hlineto
          endchar
        </CharString>
        <CharString name="chigreek">
          55 -362 rmoveto
          208 hlineto
          405 539 rlineto
          15 hlineto
          122 -379 rlineto
          -120 39 57 -50 122 hhcurveto
          43 36 7 8 23 hvcurveto
          27 157 rlineto
          -3 -20 -14 -2 -18 hhcurveto
          -70 -34 28 85 -29 hvcurveto
          -153 454 550 728 227 callgsubr
          -396 -528 rlineto
          -15 hlineto
          -118 358 rlineto
          134 -44 -50 49 -125 hhcurveto
          -37 -36 -6 -8 -26 hvcurveto
          -27 -158 rlineto
          4 19 16 1 12 hhcurveto
          72 33 -31 -96 33 hvcurveto
          146 -435 rlineto
          endchar
        </CharString>
        <CharString name="circumflex">
          807 94 callsubr
          endchar
        </CharString>
        <CharString name="circumflexacutecmb">
          1127 1658 rmoveto
          184 hlineto
          287 316 225 callgsubr
          -577 -346 -100 callsubr
          endchar
        </CharString>
        <CharString name="circumflexacutecmb.short">
          1168 1853 rmoveto
          188 hlineto
          271 252 rlineto
          -211 hlineto
          -361 -284 39 callsubr
          endchar
        </CharString>
        <CharString name="circumflexbelowcmb">
          492 -164 -70 callgsubr
        </CharString>
        <CharString name="circumflexcmb">
          807 94 callsubr
          endchar
        </CharString>
        <CharString name="circumflexcmb.short">
          1066 1925 -11 callgsubr
        </CharString>
        <CharString name="circumflexgravecmb">
          1396 1658 rmoveto
          -147 211 callgsubr
          -415 -30 -100 callsubr
          endchar
        </CharString>
        <CharString name="circumflexgravecmb.short">
          1409 163 callgsubr
          -176 -32 rmoveto
          -206 hlineto
          -10 callgsubr
          endchar
        </CharString>
        <CharString name="circumflexhookabovecmb">
          807 1628 11 callsubr
        </CharString>
        <CharString name="circumflexhookabovecmb.short">
          1057 1821 rmoveto
          -206 hlineto
          -10 callgsubr
          -165 426 6 callsubr
        </CharString>
        <CharString name="circumflextildecmb">
          818 1865 1 callsubr
        </CharString>
        <CharString name="circumflextildecmb.short">
          1056 203 callsubr
          220 hlineto
          190 38 callsubr
          204 29 callsubr
        </CharString>
        <CharString name="colon">
          665 -10 rmoveto
          106 87 89 107 108 -87 88 -106 -105 -87 -88 -108 -107 87 -89 105 hvcurveto
          136 766 rmoveto
          106 86 88 107 108 -86 88 -106 -105 -87 -88 -108 -107 87 -88 105 hvcurveto
          endchar
        </CharString>
        <CharString name="coloncurrency">
          653 -159 rmoveto
          81 156 rlineto
          -16 62 69 -8 77 hhcurveto
          72 77 7 11 67 hvcurveto
          32 189 rlineto
          -12 -52 -74 -7 -73 hhcurveto
          -65 -59 6 12 -50 hvcurveto
          712 1415 rlineto
          -125 hlineto
          -76 -149 -48 13 -71 8 -73 4 rlinecurve
          0 49 83 15 41 vhcurveto
          -126 hlineto
          -62 -126 -479 -28 -308 -302 -23 -470 rlinecurve
          -16 -213 60 -177 121 -111 -168 -326 rcurveline
          125 hlineto
          136 260 46 -33 54 -27 61 -20 rlinecurve
          -93 -180 rlineto
          -61 542 rmoveto
          -41 79 -18 105 5 113 11 306 199 224 295 54 rrcurveto
          -215 -1064 rmoveto
          -63 20 -55 31 -39 38 504 993 rcurveline
          73 1 68 -6 56 -9 rrcurveto
          endchar
        </CharString>
        <CharString name="comma">
          537 -335 rmoveto
          311 725 rlineto
          -262 hlineto
          -258 -725 rlineto
          endchar
        </CharString>
        <CharString name="commaaccent">
          627 -494 -35 callsubr
        </CharString>
        <CharString name="commabelowcmb">
          574 -516 108 callgsubr
        </CharString>
        <CharString name="copyright">
          760 196 rmoveto
          291 227 230 132 callsubr
          -230 291 hvcurveto
          98 vmoveto
          -231 -182 188 239 240 182 188 231 231 182 -188 -240 -239 -182 -188 -231 hvcurveto
          253 508 rmoveto
          115 2 -90 82 -126 hhcurveto
          -174 -113 -128 -197 -140 91 -90 142 117 94 73 112 26 hvcurveto
          -122 hlineto
          -45 -18 -42 -27 -49 hhcurveto
          -73 -40 45 80 121 60 84 86 62 36 -29 -56 9 hvcurveto
          endchar
        </CharString>
        <CharString name="cruzeiro">
          1207 175 rmoveto
          -10 -50 -63 -6 -62 hhcurveto
          -44 -40 2 5 -38 hvcurveto
          55 298 rlineto
          161 28 106 104 131 hhcurveto
          34 47 -8 -8 18 hvcurveto
          30 174 rlineto
          8 -20 -28 4 -31 hhcurveto
          -119 -99 -70 -122 -47 hvcurveto
          -13 hlineto
          30 175 rlineto
          -169 hlineto
          -122 -684 rlineto
          -208 62 -106 147 226 vvcurveto
          380 265 269 371 102 113 -15 -20 63 vhcurveto
          36 182 rlineto
          26 -65 -113 16 -124 hhcurveto
          -525 -335 -331 -524 -406 295 -237 472 72 64 5 10 57 hvcurveto
          endchar
        </CharString>
        <CharString name="currency">
          1304 943 rmoveto
          -99 149 -187 -138 -54 54 -70 35 -78 13 rlinecurve
          -77 14 -78 -9 -70 -32 -129 193 rcurveline
          -143 -104 130 -191 -53 -54 -35 -70 -14 -81 rlinecurve
          -14 -82 8 -77 31 -71 -188 -135 rcurveline
          101 -149 187 139 55 -53 70 -36 78 -13 rlinecurve
          78 -13 77 8 69 31 129 -193 rcurveline
          142 104 -128 189 54 57 34 69 14 82 rlinecurve
          15 81 -9 78 -31 70 rrcurveto
          -418 -404 rmoveto
          -140 25 -83 123 26 141 24 141 122 87 140 -24 139 -24 83 -123 -25 -142 -25 -141 -121 -87 -140 24 rrcurveto
          endchar
        </CharString>
        <CharString name="d">
          -94 callgsubr
          endchar
        </CharString>
        <CharString name="dagger">
          849 762 rmoveto
          399 -1 28 170 -398 -1 78 424 rlineto
          -168 hlineto
          -73 -424 -399 1 -28 -170 399 1 -168 -933 rlineto
          168 hlineto
          endchar
        </CharString>
        <CharString name="daggerdbl">
          1158 252 rmoveto
          29 171 -398 -2 61 341 398 -1 28 170 -397 -1 77 424 rlineto
          -168 hlineto
          -75 -424 -397 1 -28 -170 398 1 -62 -341 -397 2 -29 -171 397 1 -76 -424 rlineto
          168 hlineto
          74 424 rlineto
          endchar
        </CharString>
        <CharString name="dblgrave">
          1049 1639 rmoveto
          -205 120 callgsubr
          endchar
        </CharString>
        <CharString name="dblgravecmb">
          966 96 callsubr
          endchar
        </CharString>
        <CharString name="dblgravecmb.short">
          1004 1917 46 callgsubr
          -584 307 140 callsubr
          181 hlineto
          endchar
        </CharString>
        <CharString name="dcaron">
          1358 1515 rmoveto
          -82 -468 rlineto
          138 hlineto
          119 468 rlineto
          -923 -407 rmoveto
          -214 -147 -150 -258 -45 hvcurveto
          -36 -214 rlineto
          -7 -34 -4 -46 -54 vvcurveto
          -229 126 -141 209 132 96 73 126 50 vhcurveto
          14 hlineto
          -32 -181 rlineto
          182 hlineto
          267 1515 rlineto
          -187 hlineto
          -112 -628 rlineto
          -10 hlineto
          133 -25 -102 88 -155 hhcurveto
          26 -177 rmoveto
          137 91 -100 -134 -35 -2 -21 -5 -26 hvcurveto
          -31 -185 rlineto
          -176 -32 -95 -90 -148 hhcurveto
          -132 -76 93 154 31 3 32 4 21 hvcurveto
          30 173 rlineto
          183 32 83 80 141 hhcurveto
          endchar
        </CharString>
        <CharString name="dcircumflexbelow">
          -94 callgsubr
          -251 -1095 -70 callgsubr
        </CharString>
        <CharString name="dcommaaccent">
          -94 callgsubr
          -154 -1447 -35 callsubr
        </CharString>
        <CharString name="dcroat">
          964 440 rmoveto
          -171 -31 -115 -105 -161 hhcurveto
          -143 -93 98 150 34 4 38 4 24 hvcurveto
          26 150 rlineto
          177 32 99 96 154 hhcurveto
          150 109 -110 -152 -17 -1 -20 -5 -28 hvcurveto
          501 784 rmoveto
          -162 hlineto
          22 127 rlineto
          -202 hlineto
          -23 -127 -15 callsubr
          -21 -121 rlineto
          201 hlineto
          -70 -392 rlineto
          -11 hlineto
          141 -25 -138 92 -163 hhcurveto
          -233 -170 -162 -264 -44 hvcurveto
          -29 -176 rlineto
          -5 -35 -5 -52 -50 vvcurveto
          -236 144 -151 229 145 125 83 128 49 vhcurveto
          14 hlineto
          -34 -193 rlineto
          200 hlineto
          223 1267 rlineto
          163 hlineto
          endchar
        </CharString>
        <CharString name="ddotaccent">
          -94 callgsubr
          -15 364 -52 callsubr
          endchar
        </CharString>
        <CharString name="ddotbelow">
          -94 callgsubr
          -167 -1389 -85 callsubr
        </CharString>
        <CharString name="decyrillic">
          0 callsubr
        </CharString>
        <CharString name="degree">
          837 828 rmoveto
          188 140 140 188 188 -140 140 -188 -188 -140 -140 -188 -188 140 -140 188 hvcurveto
          136 vmoveto
          -110 -79 81 111 111 79 81 110 109 80 -81 -111 -111 -80 -81 -109 hvcurveto
          endchar
        </CharString>
        <CharString name="deltagreek">
          1222 582 rmoveto
          210 -85 123 -230 147 vhcurveto
          -123 76 -51 42 73 vvcurveto
          78 54 39 124 107 122 -35 -64 113 vhcurveto
          28 168 rlineto
          60 -102 -143 36 -143 hhcurveto
          -202 -163 -81 -187 -96 53 -88 125 -72 hvcurveto
          -3 -13 -243 -17 -151 -133 -57 -197 rlinecurve
          -24 -85 -10 -64 -67 vvcurveto
          -280 179 -175 274 262 180 136 247 74 vhcurveto
          24 73 11 69 77 vvcurveto
          -458 283 rmoveto
          153 109 -98 -188 -31 -3 -30 -5 -30 hvcurveto
          -3 -21 -10 -45 -6 -19 rrcurveto
          -156 -47 -116 -98 -149 hhcurveto
          -163 -110 118 165 30 2 28 4 28 hvcurveto
          3 21 8 43 5 18 rrcurveto
          164 40 113 101 175 hhcurveto
          endchar
        </CharString>
        <CharString name="dieresis">
          677 69 callgsubr
          421 hmoveto
          -94 callsubr
          endchar
        </CharString>
        <CharString name="dieresisacutecmb">
          803 1658 rmoveto
          188 hlineto
          297 316 rlineto
          -217 hlineto
          -397 -673 rmoveto
          68 58 59 70 70 -58 59 -68 -67 -59 -59 -70 -70 59 -48 callsubr
        </CharString>
        <CharString name="dieresisacutecmb.short">
          815 1876 rmoveto
          195 hlineto
          265 229 rlineto
          -225 hlineto
          -327 -540 rmoveto
          -30 callgsubr
          409 hmoveto
          64 53 54 66 67 -53 54 -64 28 callsubr
          endchar
        </CharString>
        <CharString name="dieresisbelowcmb">
          366 -449 -67 callsubr
          endchar
        </CharString>
        <CharString name="dieresiscaroncmb">
          1026 1658 rmoveto
          329 324 -15 callsubr
          -211 -214 rlineto
          -15 hlineto
          -136 214 126 callgsubr
          216 -324 rlineto
          -149 -357 rmoveto
          68 58 59 70 70 -58 59 -68 -67 -59 -59 -70 -70 59 -48 callsubr
        </CharString>
        <CharString name="dieresiscaroncmb.short">
          1038 1866 11 callgsubr
        </CharString>
        <CharString name="dieresiscmb">
          677 96 callgsubr
          -31 callsubr
          420 hmoveto
          -39 callsubr
          endchar
        </CharString>
        <CharString name="dieresiscmb.short">
          735 70 callsubr
          -51 callgsubr
          -59 68 hvcurveto
          421 hmoveto
          -94 callsubr
          endchar
        </CharString>
        <CharString name="dieresisgravecmb">
          675 1301 rmoveto
          -71 callgsubr
          -51 callgsubr
          -59 68 hvcurveto
          421 hmoveto
          -94 callsubr
          -397 673 rmoveto
          -217 hlineto
          297 -316 rlineto
          188 hlineto
          endchar
        </CharString>
        <CharString name="dieresisgravecmb.short">
          724 1565 rmoveto
          -30 callgsubr
          409 hmoveto
          64 53 54 66 67 -53 54 -64 -65 -53 -54 -67 -66 53 -54 65 hvcurveto
          -242 540 rmoveto
          -219 hlineto
          185 -229 119 callsubr
          endchar
        </CharString>
        <CharString name="dieresismacroncmb">
          1095 1560 rmoveto
          -67 -59 -60 -26 callsubr
          -61 callsubr
          60 -68 hvcurveto
          -421 hmoveto
          -67 -59 -60 -26 callsubr
          68 58 59 70 70 -58 60 -68 hvcurveto
          -51 318 86 callgsubr
        </CharString>
        <CharString name="dieresismacroncmb.short">
          1133 1805 rmoveto
          -64 -53 -53 -67 -67 53 -53 64 88 callsubr
          hvcurveto
          185 269 rmoveto
          -683 hlineto
          -23 -133 rlineto
          683 hlineto
          -570 -136 rmoveto
          88 callgsubr
          88 callsubr
          hvcurveto
          endchar
        </CharString>
        <CharString name="dieresistonosgreek">
          566 1299 rmoveto
          24 callgsubr
          641 166 callgsubr
          -55 -55 -68 -68 55 -54 66 hvcurveto
          -455 -13 rmoveto
          153 141 callsubr
          endchar
        </CharString>
        <CharString name="divide">
          1235 553 rmoveto
          30 175 rlineto
          -1012 hlineto
          -31 -175 rlineto
          576 319 rmoveto
          80 56 57 80 81 -56 57 -80 -78 -58 -57 -81 -80 58 -57 78 hvcurveto
          -108 -737 rmoveto
          80 57 56 80 81 -57 57 -80 -78 -57 -57 -81 -80 57 -56 78 hvcurveto
          endchar
        </CharString>
        <CharString name="djecyrillic">
          526 905 rmoveto
          65 363 rlineto
          254 216 callgsubr
          -254 hlineto
          23 126 168 callsubr
          -22 -126 rlineto
          -153 hlineto
          -21 -121 rlineto
          152 hlineto
          -224 -1268 rlineto
          201 hlineto
          113 643 rlineto
          179 32 122 108 150 hhcurveto
          133 88 -87 -128 -28 -4 -37 -7 -38 hvcurveto
          -75 -426 rlineto
          -4 hlineto
          -39 -237 rlineto
          -109 -20 -62 -47 -120 hhcurveto
          -8 -11 1 1 -3 hvcurveto
          -28 -163 rlineto
          -1 6 24 -2 13 hhcurveto
          233 141 108 208 36 hvcurveto
          9 55 -66 callgsubr
          endchar
        </CharString>
        <CharString name="dlinebelow">
          -94 callgsubr
          158 -1332 -64 callgsubr
          endchar
        </CharString>
        <CharString name="dollar">
          802 621 rmoveto
          167 -66 58 -62 -108 vvcurveto
          -146 -126 -102 -185 -5 vhcurveto
          3 716 rmoveto
          -142 61 -58 67 101 vvcurveto
          132 114 94 168 8 vhcurveto
          492 -249 rmoveto
          1 6 2 23 11 vvcurveto
          179 -142 141 -203 41 vhcurveto
          21 121 rlineto
          -123 hlineto
          -19 -109 rlineto
          -2 hlineto
          -297 -207 -170 -245 -183 105 -123 236 -87 hvcurveto
          21 -7 -91 -517 rlineto
          -139 30 -89 89 118 vvcurveto
          4 1 9 1 11 vhcurveto
          -185 hlineto
          -2 -6 -1 -23 -18 vvcurveto
          -189 159 -150 226 -40 vhcurveto
          -21 -119 rlineto
          123 hlineto
          19 109 rlineto
          1 hlineto
          317 213 176 261 185 -98 115 -243 88 hvcurveto
          -42 14 87 491 rlineto
          111 -31 75 -83 -105 vvcurveto
          -9 0 -7 -1 -1 vhcurveto
          endchar
        </CharString>
        <CharString name="dotaccent">
          885 137 callsubr
          endchar
        </CharString>
        <CharString name="dotaccentcmb">
          885 137 callsubr
          endchar
        </CharString>
        <CharString name="dotaccentcmb.short">
          948 1628 -98 callgsubr
          endchar
        </CharString>
        <CharString name="dotbelowcmb">
          67 callgsubr
          endchar
        </CharString>
        <CharString name="dotlessi">
          1111 hmoveto
          -91 callgsubr
          endchar
        </CharString>
        <CharString name="dotlessj">
          1075 1090 -36 callsubr
          endchar
        </CharString>
        <CharString name="dotmacroncmb">
          1276 1728 -64 callgsubr
          284 -445 -85 callsubr
        </CharString>
        <CharString name="dotmacroncmb.short">
          923 78 callgsubr
          endchar
        </CharString>
        <CharString name="dzecyrillic">
          361 774 rmoveto
          51 callgsubr
          vhcurveto
          149 -49 rlineto
          -102 callsubr
          hvcurveto
          endchar
        </CharString>
        <CharString name="dzhecyrillic">
          1302 1090 rmoveto
          -201 179 callsubr
          -521 177 callsubr
          -200 -42 callgsubr
          368 hlineto
          153 callsubr
          185 hlineto
          50 285 rlineto
          368 hlineto
          endchar
        </CharString>
        <CharString name="e">
          -106 callsubr
          endchar
        </CharString>
        <CharString name="eacute">
          927 1296 80 callgsubr
          238 -1008 -75 callgsubr
        </CharString>
        <CharString name="ebreve">
          -106 callsubr
          -284 956 1 callgsubr
        </CharString>
        <CharString name="ecaron">
          -106 callsubr
          -190 1008 -77 callsubr
          endchar
        </CharString>
        <CharString name="ecedilla">
          487 636 -45 callgsubr
        </CharString>
        <CharString name="ecedillabreve">
          1107 1581 rmoveto
          30 callsubr
          215 162 179 callgsubr
          -780 -945 -45 callgsubr
        </CharString>
        <CharString name="ecircumflex">
          -106 callsubr
          -353 1337 -100 callsubr
          endchar
        </CharString>
        <CharString name="ecircumflexacute">
          -106 callsubr
          -33 1370 rmoveto
          184 hlineto
          287 316 225 callgsubr
          -577 -346 -100 callsubr
          endchar
        </CharString>
        <CharString name="ecircumflexbelow">
          -106 callsubr
          -609 -452 rmoveto
          -332 -346 203 callgsubr
          203 221 rlineto
          15 hlineto
          126 -221 110 callgsubr
          -212 346 rlineto
          endchar
        </CharString>
        <CharString name="ecircumflexdotbelow">
          -106 callsubr
          -353 1337 -100 callsubr
          -397 -2083 -85 callsubr
        </CharString>
        <CharString name="ecircumflexgrave">
          -106 callsubr
          236 1370 rmoveto
          -147 211 callgsubr
          -415 -30 -100 callsubr
          endchar
        </CharString>
        <CharString name="ecircumflexhookabove">
          -106 callsubr
          -353 1340 11 callsubr
        </CharString>
        <CharString name="ecircumflextilde">
          -106 callsubr
          -342 1577 1 callsubr
        </CharString>
        <CharString name="ecyrillic">
          947 314 -12 callgsubr
        </CharString>
        <CharString name="edblgrave">
          959 96 callsubr
          231 -1008 -75 callgsubr
        </CharString>
        <CharString name="edieresis">
          -106 callsubr
          -468 1025 -67 callsubr
          endchar
        </CharString>
        <CharString name="edotaccent">
          -106 callsubr
          -275 1007 -52 callsubr
          endchar
        </CharString>
        <CharString name="edotbelow">
          -106 callsubr
          -524 -746 -85 callsubr
        </CharString>
        <CharString name="efcyrillic">
          475 -361 rmoveto
          191 hlineto
          62 351 rlineto
          18 hlineto
          295 4 205 167 52 304 1 9 11 61 1 9 rrcurveto
          8 45 3 37 33 vvcurveto
          254 -145 178 -252 18 vhcurveto
          61 347 rlineto
          -191 hlineto
          -61 -345 rlineto
          -18 hlineto
          -293 -4 -208 -171 -52 -302 -1 -10 -11 -61 -1 -9 rrcurveto
          -8 -45 -3 -38 -33 vvcurveto
          -254 146 -177 252 -18 vhcurveto
          -199 612 rmoveto
          39 221 131 129 189 1 rrcurveto
          13 hlineto
          -143 -805 rlineto
          -167 5 -79 121 176 vvcurveto
          31 2 32 6 34 vhcurveto
          6 7 42 2 7 vhcurveto
          556 351 rmoveto
          167 -5 79 -122 -176 vvcurveto
          -31 -2 -32 -6 -33 vhcurveto
          -7 -7 -41 -1 -7 vhcurveto
          -39 -222 -131 -128 -189 -1 rrcurveto
          -15 hlineto
          endchar
        </CharString>
        <CharString name="egrave">
          -106 callsubr
          -164 1008 7 callsubr
        </CharString>
        <CharString name="ehookabove">
          -106 callsubr
          -448 1207 rmoveto
          16 33 38 9 39 hhcurveto
          61 39 -28 -45 -47 -39 -40 -68 -22 52 callsubr
        </CharString>
        <CharString name="eight">
          820 836 rmoveto
          -150 -104 94 135 140 109 100 154 152 102 -93 -137 -138 -110 -101 -153 hvcurveto
          -113 -697 rmoveto
          -180 -123 106 155 156 130 113 180 180 125 -108 -154 -158 -128 -110 -184 hvcurveto
          580 961 rmoveto
          221 -188 154 -270 -273 -196 -162 -226 -134 81 -114 136 -61 vhcurveto
          -2 -14 rlineto
          -221 -17 -165 -164 -202 vvcurveto
          -244 210 -169 307 311 214 173 252 168 -103 140 -161 52 vhcurveto
          3 15 rlineto
          180 13 137 144 175 vvcurveto
          endchar
        </CharString>
        <CharString name="einvertedbreve">
          -106 callsubr
          -260 1307 53 callgsubr
        </CharString>
        <CharString name="elcyrillic">
          675 925 rmoveto
          368 179 callsubr
          199 90 callsubr
          -41 callsubr
          endchar
        </CharString>
        <CharString name="ellipsis">
          237 -15 rmoveto
          148 callsubr
          406 hmoveto
          90 59 91 136 81 -41 44 -73 -86 -62 -95 -133 -80 40 -44 73 hvcurveto
          408 hmoveto
          148 callsubr
          endchar
        </CharString>
        <CharString name="emacron">
          -106 callsubr
          53 1078 -28 callsubr
          endchar
        </CharString>
        <CharString name="emacronacute">
          1206 1362 rmoveto
          26 152 rlineto
          -678 180 callsubr
          438 304 185 callgsubr
          159 -1378 -75 callgsubr
        </CharString>
        <CharString name="emacrongrave">
          -106 callsubr
          -126 1380 95 callsubr
        </CharString>
        <CharString name="emcyrillic">
          409 790 rmoveto
          134 callgsubr
          165 hlineto
          191 1090 rlineto
          117 callsubr
          endchar
        </CharString>
        <CharString name="emdash">
          79 callgsubr
        </CharString>
        <CharString name="encyrillic">
          52 callgsubr
        </CharString>
        <CharString name="endash">
          79 callgsubr
        </CharString>
</ttFont>
